<?xml version="1.0" encoding="UTF-8"?>
<svg version="1.1" xmlns="http://www.w3.org/2000/svg" width="1726" height="635">
<path d="M0 0 C1.64394231 -0.00668312 1.64394231 -0.00668312 3.32109557 -0.01350125 C6.98453504 -0.02475264 10.64759823 -0.01472473 14.31103683 -0.00476122 C16.97895415 -0.00849876 19.64684556 -0.01342528 22.3147555 -0.01979005 C28.12885723 -0.03126243 33.94287715 -0.03162576 39.75698486 -0.02469462 C48.46096882 -0.0143714 57.16488093 -0.02136344 65.86886186 -0.03167468 C80.70427332 -0.04873707 95.53965699 -0.05153834 110.37507606 -0.04655886 C125.40876639 -0.04155838 140.4424351 -0.04304696 155.47612357 -0.05244112 C156.90057515 -0.05332384 156.90057515 -0.05332384 158.35380354 -0.05422439 C162.2215405 -0.05664094 166.08927744 -0.05910103 169.95701434 -0.06161705 C209.22183295 -0.08712637 248.48663782 -0.09310403 287.75146358 -0.0912059 C293.17729317 -0.09094628 298.60312277 -0.0907076 304.02895236 -0.09049082 C305.10664553 -0.09044678 306.1843387 -0.09040274 307.29468924 -0.09035737 C331.17477099 -0.08949406 355.05485059 -0.09428483 378.9349315 -0.10017273 C384.38711701 -0.1015137 389.83930252 -0.10281359 395.29148804 -0.10411838 C397.47966016 -0.1046429 399.66783228 -0.10516749 401.8560044 -0.10569215 C403.48295734 -0.10608182 403.48295734 -0.10608182 405.14277801 -0.10647936 C407.33668595 -0.10700554 409.53059387 -0.10753322 411.7245018 -0.10806238 C473.98077904 -0.12306034 536.23705456 -0.13182783 598.49333358 -0.12710619 C600.22273291 -0.12697739 600.22273291 -0.12697739 601.98706961 -0.12684599 C614.84361622 -0.12588659 627.70016283 -0.12484838 640.55670944 -0.12378711 C644.07558443 -0.12349759 647.59445942 -0.1232081 651.11333442 -0.1229187 C653.46118331 -0.1227247 655.80903221 -0.1225292 658.15688111 -0.12233221 C732.40698845 -0.11611583 806.6570632 -0.13097744 880.90716338 -0.16364336 C899.61618964 -0.17186652 918.32521592 -0.18001646 937.03424239 -0.18774462 C938.76219998 -0.18845891 938.76219998 -0.18845891 940.52506581 -0.18918764 C976.02607737 -0.20377245 1011.52708623 -0.21221895 1047.02810073 -0.21431017 C1048.1425793 -0.21437649 1049.25705787 -0.2144428 1050.40530851 -0.21451113 C1074.86997837 -0.21590515 1099.33464802 -0.21579397 1123.79931786 -0.21430104 C1132.55303817 -0.21377892 1141.30675848 -0.21336176 1150.0604788 -0.21299287 C1152.2381978 -0.21289965 1154.41591679 -0.21280051 1156.59363579 -0.21269543 C1191.30052006 -0.21107002 1226.00738006 -0.22389777 1260.71425803 -0.2438532 C1295.66703835 -0.263832 1330.61978247 -0.26756531 1365.57256478 -0.24922746 C1370.40225058 -0.24669364 1375.23193645 -0.24433119 1380.06162238 -0.24206972 C1381.48174586 -0.24139415 1381.48174586 -0.24139415 1382.93055869 -0.24070493 C1397.92215888 -0.23402623 1412.91369892 -0.24411549 1427.90528891 -0.2611811 C1442.64620274 -0.27760929 1457.38702534 -0.27618993 1472.12793517 -0.25578274 C1480.76986191 -0.24435118 1489.41152385 -0.24655078 1498.05343049 -0.26899791 C1503.79641205 -0.28254491 1509.53919473 -0.27788304 1515.28215925 -0.25856549 C1518.53551455 -0.24812686 1521.78824902 -0.24805917 1525.04159252 -0.26488338 C1549.7380394 -0.38394566 1568.80629768 4.24051236 1587.1566751 21.62834883 C1603.29689941 38.24659371 1607.00733547 59.16709525 1606.91262603 81.36809492 C1606.91608923 83.15211666 1606.92085822 84.93613625 1606.92680776 86.72015142 C1606.93925635 91.58703095 1606.93317552 96.45373252 1606.92384911 101.32061243 C1606.91703364 106.58313555 1606.92755218 111.84562905 1606.93578887 117.10814619 C1606.94910182 127.40342626 1606.94625934 137.69864058 1606.93755095 147.99392319 C1606.9307652 156.36399355 1606.92986153 164.73404554 1606.9331224 173.10411787 C1606.9335821 174.29713495 1606.93404179 175.49015202 1606.93451542 176.71932113 C1606.93547464 179.14320342 1606.93644728 181.56708571 1606.9374332 183.99096799 C1606.94597995 206.69920545 1606.93616417 229.40740653 1606.9200321 252.11563802 C1606.90662958 271.58408588 1606.90895787 291.05248006 1606.92278838 310.52092695 C1606.93885681 333.15004627 1606.94515604 355.77913373 1606.93595159 378.40825796 C1606.93499598 380.8230319 1606.93405287 383.23780584 1606.9331224 385.65257978 C1606.93265957 386.84057562 1606.93219674 388.02857146 1606.93171989 389.25256717 C1606.9291338 397.60885359 1606.93349279 405.96511974 1606.94056106 414.32140303 C1606.94899029 424.51024912 1606.946666 434.69902592 1606.93071882 444.88786411 C1606.92285529 450.0825181 1606.91971175 455.27705669 1606.92966628 460.47170973 C1606.93865346 465.23371917 1606.93361445 469.99550704 1606.91773362 474.7574966 C1606.91440279 476.4733298 1606.9160413 478.18918201 1606.92336099 479.90500283 C1607.01345311 502.79248135 1601.19104007 522.32818581 1585.1566751 539.25334883 C1566.15004264 557.27005251 1544.43866852 558.82909751 1519.67332435 558.75866556 C1517.00905531 558.76210012 1514.34481209 558.76672433 1511.68055016 558.77278653 C1505.87756292 558.78359522 1500.07465897 558.78330875 1494.27166785 558.7757135 C1485.58435623 558.76439759 1476.89711475 558.77042923 1468.20980386 558.77977749 C1453.40244006 558.79520134 1438.59510565 558.79638729 1423.78773665 558.78979826 C1408.78349396 558.78316971 1393.77927227 558.78304655 1378.7750299 558.79084539 C1377.35312929 558.79157739 1377.35312929 558.79157739 1375.90250342 558.79232418 C1372.04166831 558.79433237 1368.18083324 558.79638548 1364.31999819 558.79849592 C1325.13022909 558.81989556 1285.94047552 558.8219506 1246.75070204 558.81643888 C1241.33575457 558.81568317 1235.92080709 558.81495555 1230.50585961 558.81425691 C1229.43032523 558.81411782 1228.35479085 558.81397872 1227.24666452 558.81383542 C1203.41276857 558.81088332 1179.57887449 558.81389572 1155.74497888 558.8181532 C1152.4831911 558.81873535 1149.22140331 558.8193042 1145.95961552 558.81986883 C1137.2159212 558.82138377 1128.47222689 558.82291068 1119.72853257 558.82446183 C1058.68886378 558.83521887 997.64919671 558.83992003 936.60952735 558.83199167 C934.88356877 558.83176921 934.88356877 558.83176921 933.12274234 558.83154226 C920.29180696 558.82988325 907.46087159 558.82813367 894.62993623 558.82634925 C892.89225903 558.82610771 892.89225903 558.82610771 891.11947725 558.8258613 C881.71764541 558.82455351 881.71764541 558.82455351 877.06486063 558.82390011 C802.95792393 558.81350763 728.85101097 558.82127685 654.74407744 558.84490156 C636.06995499 558.85084491 617.39583253 558.85673644 598.72170997 558.86231089 C596.99698009 558.86282654 596.99698009 558.86282654 595.23740719 558.86335261 C559.80396598 558.87387892 524.37052674 558.87947394 488.93708396 558.87986803 C487.26860818 558.8798872 487.26860818 558.8798872 485.56642583 558.87990676 C461.14951955 558.88013505 436.73261345 558.87912903 412.31570727 558.87699771 C403.57916992 558.87624294 394.84263257 558.87556473 386.10609522 558.87491756 C383.93265107 558.87475487 381.75920692 558.8745872 379.58576277 558.87441454 C344.94490068 558.87169264 310.30405301 558.88025067 275.66319402 558.89426865 C239.80889625 558.90867129 203.95462589 558.90823263 168.10032906 558.89089393 C164.25059354 558.88908973 160.400858 558.88734954 156.55112243 558.88565969 C155.13392912 558.88502894 155.13392912 558.88502894 153.68810564 558.88438545 C138.72475077 558.87808632 123.76143356 558.88519379 108.798084 558.89786889 C94.08660725 558.91004785 79.37518995 558.90795286 64.6637177 558.89064858 C56.03802901 558.88092774 47.4125092 558.88211791 38.78683155 558.89947856 C33.05588724 558.9099178 27.32507149 558.90581285 21.59413991 558.88996207 C18.34687722 558.88138462 15.1000124 558.88112545 11.85275567 558.89434579 C-13.00166994 558.98856655 -32.93221453 555.17952095 -51.5776999 537.36272383 C-68.69213717 519.45226621 -71.79093552 497.36742565 -71.72229218 473.69231367 C-71.72460113 471.94129193 -71.72778056 470.19027115 -71.73174667 468.43925238 C-71.74004366 463.66361781 -71.73599274 458.88806388 -71.72977424 454.11242914 C-71.72522976 448.94807295 -71.73224337 443.78373015 -71.73773408 438.61937666 C-71.74660848 428.51661586 -71.74471478 418.41388484 -71.7389088 408.31112289 C-71.73438462 400.09742473 -71.73378267 391.88373489 -71.73595643 383.67003584 C-71.7362629 382.49922165 -71.73656936 381.32840747 -71.73688512 380.12211406 C-71.73752459 377.74332777 -71.73817302 375.36454149 -71.7388303 372.98575521 C-71.74452787 350.70100646 -71.73798469 328.41627419 -71.72722957 306.13152814 C-71.71829458 287.02694449 -71.71984678 267.92238516 -71.72906709 248.81780195 C-71.73977983 226.61058925 -71.7439786 204.40339098 -71.73784256 182.19617605 C-71.73720549 179.82633798 -71.73657675 177.4564999 -71.73595643 175.08666182 C-71.73564788 173.92077886 -71.73533933 172.7548959 -71.73502143 171.55368316 C-71.7332975 163.35369432 -71.73620306 155.15371466 -71.74091554 146.95372725 C-71.74653553 136.9552038 -71.74498441 126.95671174 -71.73435405 116.95819187 C-71.7291124 111.86077189 -71.72701484 106.76340417 -71.73365235 101.66598463 C-71.73964519 96.99283953 -71.73628206 92.31979476 -71.72569725 87.64665866 C-71.72347729 85.96312551 -71.72456763 84.27958376 -71.72944883 82.59605622 C-71.79488896 58.13462274 -67.29190832 37.74799994 -50.0933249 19.50334883 C-36.4162256 6.53859845 -18.69287984 -0.13020256 0 0 Z " fill="#1F5CA9" transform="translate(71.46832489967346,76.62165117263794)"/>
<path d="M0 0 C1.64394231 -0.00668312 1.64394231 -0.00668312 3.32109557 -0.01350125 C6.98453504 -0.02475264 10.64759823 -0.01472473 14.31103683 -0.00476122 C16.97895415 -0.00849876 19.64684556 -0.01342528 22.3147555 -0.01979005 C28.12885723 -0.03126243 33.94287715 -0.03162576 39.75698486 -0.02469462 C48.46096882 -0.0143714 57.16488093 -0.02136344 65.86886186 -0.03167468 C80.70427332 -0.04873707 95.53965699 -0.05153834 110.37507606 -0.04655886 C125.40876639 -0.04155838 140.4424351 -0.04304696 155.47612357 -0.05244112 C156.90057515 -0.05332384 156.90057515 -0.05332384 158.35380354 -0.05422439 C162.2215405 -0.05664094 166.08927744 -0.05910103 169.95701434 -0.06161705 C209.22183295 -0.08712637 248.48663782 -0.09310403 287.75146358 -0.0912059 C293.17729317 -0.09094628 298.60312277 -0.0907076 304.02895236 -0.09049082 C305.10664553 -0.09044678 306.1843387 -0.09040274 307.29468924 -0.09035737 C331.17477099 -0.08949406 355.05485059 -0.09428483 378.9349315 -0.10017273 C384.38711701 -0.1015137 389.83930252 -0.10281359 395.29148804 -0.10411838 C397.47966016 -0.1046429 399.66783228 -0.10516749 401.8560044 -0.10569215 C403.48295734 -0.10608182 403.48295734 -0.10608182 405.14277801 -0.10647936 C407.33668595 -0.10700554 409.53059387 -0.10753322 411.7245018 -0.10806238 C473.98077904 -0.12306034 536.23705456 -0.13182783 598.49333358 -0.12710619 C600.22273291 -0.12697739 600.22273291 -0.12697739 601.98706961 -0.12684599 C614.84361622 -0.12588659 627.70016283 -0.12484838 640.55670944 -0.12378711 C644.07558443 -0.12349759 647.59445942 -0.1232081 651.11333442 -0.1229187 C653.46118331 -0.1227247 655.80903221 -0.1225292 658.15688111 -0.12233221 C732.40698845 -0.11611583 806.6570632 -0.13097744 880.90716338 -0.16364336 C899.61618964 -0.17186652 918.32521592 -0.18001646 937.03424239 -0.18774462 C938.76219998 -0.18845891 938.76219998 -0.18845891 940.52506581 -0.18918764 C976.02607737 -0.20377245 1011.52708623 -0.21221895 1047.02810073 -0.21431017 C1048.1425793 -0.21437649 1049.25705787 -0.2144428 1050.40530851 -0.21451113 C1074.86997837 -0.21590515 1099.33464802 -0.21579397 1123.79931786 -0.21430104 C1132.55303817 -0.21377892 1141.30675848 -0.21336176 1150.0604788 -0.21299287 C1152.2381978 -0.21289965 1154.41591679 -0.21280051 1156.59363579 -0.21269543 C1191.30052006 -0.21107002 1226.00738006 -0.22389777 1260.71425803 -0.2438532 C1295.66703835 -0.263832 1330.61978247 -0.26756531 1365.57256478 -0.24922746 C1370.40225058 -0.24669364 1375.23193645 -0.24433119 1380.06162238 -0.24206972 C1381.48174586 -0.24139415 1381.48174586 -0.24139415 1382.93055869 -0.24070493 C1397.92215888 -0.23402623 1412.91369892 -0.24411549 1427.90528891 -0.2611811 C1442.64620274 -0.27760929 1457.38702534 -0.27618993 1472.12793517 -0.25578274 C1480.76986191 -0.24435118 1489.41152385 -0.24655078 1498.05343049 -0.26899791 C1503.79641205 -0.28254491 1509.53919473 -0.27788304 1515.28215925 -0.25856549 C1518.53551455 -0.24812686 1521.78824902 -0.24805917 1525.04159252 -0.26488338 C1549.7380394 -0.38394566 1568.80629768 4.24051236 1587.1566751 21.62834883 C1603.29689941 38.24659371 1607.00733547 59.16709525 1606.91262603 81.36809492 C1606.91608923 83.15211666 1606.92085822 84.93613625 1606.92680776 86.72015142 C1606.93925635 91.58703095 1606.93317552 96.45373252 1606.92384911 101.32061243 C1606.91703364 106.58313555 1606.92755218 111.84562905 1606.93578887 117.10814619 C1606.94910182 127.40342626 1606.94625934 137.69864058 1606.93755095 147.99392319 C1606.9307652 156.36399355 1606.92986153 164.73404554 1606.9331224 173.10411787 C1606.9335821 174.29713495 1606.93404179 175.49015202 1606.93451542 176.71932113 C1606.93547464 179.14320342 1606.93644728 181.56708571 1606.9374332 183.99096799 C1606.94597995 206.69920545 1606.93616417 229.40740653 1606.9200321 252.11563802 C1606.90662958 271.58408588 1606.90895787 291.05248006 1606.92278838 310.52092695 C1606.93885681 333.15004627 1606.94515604 355.77913373 1606.93595159 378.40825796 C1606.93499598 380.8230319 1606.93405287 383.23780584 1606.9331224 385.65257978 C1606.93265957 386.84057562 1606.93219674 388.02857146 1606.93171989 389.25256717 C1606.9291338 397.60885359 1606.93349279 405.96511974 1606.94056106 414.32140303 C1606.94899029 424.51024912 1606.946666 434.69902592 1606.93071882 444.88786411 C1606.92285529 450.0825181 1606.91971175 455.27705669 1606.92966628 460.47170973 C1606.93865346 465.23371917 1606.93361445 469.99550704 1606.91773362 474.7574966 C1606.91440279 476.4733298 1606.9160413 478.18918201 1606.92336099 479.90500283 C1607.01345311 502.79248135 1601.19104007 522.32818581 1585.1566751 539.25334883 C1566.15004264 557.27005251 1544.43866852 558.82909751 1519.67332435 558.75866556 C1517.00905531 558.76210012 1514.34481209 558.76672433 1511.68055016 558.77278653 C1505.87756292 558.78359522 1500.07465897 558.78330875 1494.27166785 558.7757135 C1485.58435623 558.76439759 1476.89711475 558.77042923 1468.20980386 558.77977749 C1453.40244006 558.79520134 1438.59510565 558.79638729 1423.78773665 558.78979826 C1408.78349396 558.78316971 1393.77927227 558.78304655 1378.7750299 558.79084539 C1377.35312929 558.79157739 1377.35312929 558.79157739 1375.90250342 558.79232418 C1372.04166831 558.79433237 1368.18083324 558.79638548 1364.31999819 558.79849592 C1325.13022909 558.81989556 1285.94047552 558.8219506 1246.75070204 558.81643888 C1241.33575457 558.81568317 1235.92080709 558.81495555 1230.50585961 558.81425691 C1229.43032523 558.81411782 1228.35479085 558.81397872 1227.24666452 558.81383542 C1203.41276857 558.81088332 1179.57887449 558.81389572 1155.74497888 558.8181532 C1152.4831911 558.81873535 1149.22140331 558.8193042 1145.95961552 558.81986883 C1137.2159212 558.82138377 1128.47222689 558.82291068 1119.72853257 558.82446183 C1058.68886378 558.83521887 997.64919671 558.83992003 936.60952735 558.83199167 C934.88356877 558.83176921 934.88356877 558.83176921 933.12274234 558.83154226 C920.29180696 558.82988325 907.46087159 558.82813367 894.62993623 558.82634925 C892.89225903 558.82610771 892.89225903 558.82610771 891.11947725 558.8258613 C881.71764541 558.82455351 881.71764541 558.82455351 877.06486063 558.82390011 C802.95792393 558.81350763 728.85101097 558.82127685 654.74407744 558.84490156 C636.06995499 558.85084491 617.39583253 558.85673644 598.72170997 558.86231089 C596.99698009 558.86282654 596.99698009 558.86282654 595.23740719 558.86335261 C559.80396598 558.87387892 524.37052674 558.87947394 488.93708396 558.87986803 C487.26860818 558.8798872 487.26860818 558.8798872 485.56642583 558.87990676 C461.14951955 558.88013505 436.73261345 558.87912903 412.31570727 558.87699771 C403.57916992 558.87624294 394.84263257 558.87556473 386.10609522 558.87491756 C383.93265107 558.87475487 381.75920692 558.8745872 379.58576277 558.87441454 C344.94490068 558.87169264 310.30405301 558.88025067 275.66319402 558.89426865 C239.80889625 558.90867129 203.95462589 558.90823263 168.10032906 558.89089393 C164.25059354 558.88908973 160.400858 558.88734954 156.55112243 558.88565969 C155.13392912 558.88502894 155.13392912 558.88502894 153.68810564 558.88438545 C138.72475077 558.87808632 123.76143356 558.88519379 108.798084 558.89786889 C94.08660725 558.91004785 79.37518995 558.90795286 64.6637177 558.89064858 C56.03802901 558.88092774 47.4125092 558.88211791 38.78683155 558.89947856 C33.05588724 558.9099178 27.32507149 558.90581285 21.59413991 558.88996207 C18.34687722 558.88138462 15.1000124 558.88112545 11.85275567 558.89434579 C-13.00166994 558.98856655 -32.93221453 555.17952095 -51.5776999 537.36272383 C-68.69213717 519.45226621 -71.79093552 497.36742565 -71.72229218 473.69231367 C-71.72460113 471.94129193 -71.72778056 470.19027115 -71.73174667 468.43925238 C-71.74004366 463.66361781 -71.73599274 458.88806388 -71.72977424 454.11242914 C-71.72522976 448.94807295 -71.73224337 443.78373015 -71.73773408 438.61937666 C-71.74660848 428.51661586 -71.74471478 418.41388484 -71.7389088 408.31112289 C-71.73438462 400.09742473 -71.73378267 391.88373489 -71.73595643 383.67003584 C-71.7362629 382.49922165 -71.73656936 381.32840747 -71.73688512 380.12211406 C-71.73752459 377.74332777 -71.73817302 375.36454149 -71.7388303 372.98575521 C-71.74452787 350.70100646 -71.73798469 328.41627419 -71.72722957 306.13152814 C-71.71829458 287.02694449 -71.71984678 267.92238516 -71.72906709 248.81780195 C-71.73977983 226.61058925 -71.7439786 204.40339098 -71.73784256 182.19617605 C-71.73720549 179.82633798 -71.73657675 177.4564999 -71.73595643 175.08666182 C-71.73564788 173.92077886 -71.73533933 172.7548959 -71.73502143 171.55368316 C-71.7332975 163.35369432 -71.73620306 155.15371466 -71.74091554 146.95372725 C-71.74653553 136.9552038 -71.74498441 126.95671174 -71.73435405 116.95819187 C-71.7291124 111.86077189 -71.72701484 106.76340417 -71.73365235 101.66598463 C-71.73964519 96.99283953 -71.73628206 92.31979476 -71.72569725 87.64665866 C-71.72347729 85.96312551 -71.72456763 84.27958376 -71.72944883 82.59605622 C-71.79488896 58.13462274 -67.29190832 37.74799994 -50.0933249 19.50334883 C-36.4162256 6.53859845 -18.69287984 -0.13020256 0 0 Z M-40.27691865 37.59319258 C-47.1016292 46.883605 -51.58685123 56.08335808 -51.60254598 67.66181135 C-51.60489821 68.40065087 -51.60725044 69.13949039 -51.60967395 69.90071899 C-51.61636004 72.39010311 -51.61590584 74.87943499 -51.61549592 77.36882734 C-51.6187948 79.16626582 -51.62252041 80.96370356 -51.6266374 82.76114035 C-51.63666297 87.71142445 -51.6403751 92.66169644 -51.64302671 97.61198926 C-51.64692815 102.94690021 -51.65650665 108.28180155 -51.66523957 113.61670637 C-51.68500925 126.50656915 -51.69507116 139.39643271 -51.70396736 152.28630686 C-51.70834972 158.3555826 -51.7137167 164.42485747 -51.71895623 170.49413252 C-51.73596955 190.66885398 -51.75046363 210.8435749 -51.75770497 231.01830244 C-51.75961489 236.25469161 -51.76153522 241.49108077 -51.76349092 246.72746992 C-51.76397466 248.02895885 -51.7644584 249.33044777 -51.76495679 250.67137575 C-51.7732567 271.75361788 -51.7985925 292.83580326 -51.83107159 313.91802061 C-51.86414164 335.56020382 -51.88215372 357.2023582 -51.88534921 378.84456682 C-51.88751443 390.99682397 -51.89626483 403.14899838 -51.92181039 415.30123091 C-51.94351665 425.65104277 -51.95156815 436.00075181 -51.94184361 446.35058385 C-51.93729864 451.63002335 -51.93919675 456.90925069 -51.95860505 462.1886611 C-51.97623529 467.02625596 -51.97523996 471.86348384 -51.95970776 476.70108259 C-51.95733149 478.44679528 -51.96165622 480.19253338 -51.97353641 481.93820727 C-52.08051846 498.70291675 -48.53584365 512.21810187 -36.7183249 524.62834883 C-20.75631112 539.80534554 -3.58631893 539.9644514 17.27791095 539.88171339 C19.92994776 539.88588807 22.58193863 539.89164994 25.23396328 539.89933085 C31.01013143 539.91286598 36.78614845 539.91160486 42.56231979 539.90059668 C51.20947889 539.88419155 59.85651595 539.89094273 68.50367789 539.90212725 C83.24264449 539.92051374 97.98155585 539.91993381 112.72052741 539.90900373 C127.65543527 539.89799585 142.59030677 539.89567966 157.52521682 539.90395308 C158.46878049 539.90446977 159.41234416 539.90498646 160.38450067 539.9055188 C164.22754093 539.90765191 168.07058115 539.90984674 171.91362132 539.91211991 C207.70428987 539.93327524 243.49493406 539.93471288 279.28560615 539.9235301 C280.34606537 539.92319892 281.4065246 539.92286774 282.49911896 539.92252652 C283.56127563 539.9221948 284.6234323 539.92186308 285.71777554 539.92152131 C318.0691838 539.91143103 350.42058199 539.90882187 382.77199149 539.91361189 C384.93788599 539.91392181 387.10378048 539.91423043 389.26967498 539.91453777 C397.97340943 539.91577963 406.67714388 539.91705429 415.38087832 539.91837682 C439.71213283 539.922045 464.04338738 539.9243273 488.37464213 539.92552137 C490.03667827 539.92560325 490.03667827 539.92560325 491.7322909 539.92568678 C527.04284569 539.92732407 562.35339698 539.92281541 597.66395068 539.91412306 C598.80933892 539.91384206 599.95472717 539.91356107 601.13482414 539.91327156 C619.73547783 539.9086917 638.33613144 539.90381388 656.93678504 539.89891086 C730.7027184 539.87948734 804.46862272 539.88038512 878.23455596 539.8998332 C896.82222689 539.90471794 915.40989783 539.90956214 933.99756885 539.91412306 C935.14207106 539.91440485 936.28657328 539.91468664 937.46575738 539.91497698 C972.73661494 539.92360168 1008.00747008 539.92725881 1043.27832866 539.92552137 C1044.38558077 539.92546704 1045.49283288 539.9254127 1046.63363809 539.92535672 C1070.93965033 539.9241068 1095.24566232 539.92157224 1119.55167431 539.91787936 C1128.24860019 539.91656279 1136.94552608 539.91531047 1145.64245197 539.91407652 C1147.80603666 539.91376696 1149.96962134 539.91345204 1152.13320602 539.91313173 C1184.47417426 539.90835701 1216.81513115 539.91242386 1249.15609797 539.92252652 C1250.21630881 539.9228577 1251.27651966 539.92318888 1252.3688581 539.9235301 C1253.42711459 539.92386083 1254.48537108 539.92419156 1255.57569595 539.92453231 C1291.26591884 539.93556433 1326.95611251 539.9315086 1362.64633123 539.91040713 C1366.47886419 539.90819771 1370.31139718 539.90605089 1374.1439302 539.90395308 C1375.0845014 539.90343225 1376.02507261 539.90291142 1376.99414597 539.90237481 C1391.88760158 539.89448514 1406.78102084 539.89997832 1421.67447318 539.9110291 C1436.31902643 539.92161016 1450.96351836 539.91789611 1465.60806383 539.89897275 C1474.19333007 539.88830217 1482.77842815 539.88851399 1491.36368634 539.90489914 C1497.06913856 539.91469114 1502.77446014 539.90992024 1508.4798966 539.89343172 C1511.71184054 539.88449421 1514.94338674 539.88384316 1518.17532708 539.89669779 C1536.333442 539.96379333 1552.4707039 539.79133393 1567.5316751 528.37834883 C1568.6041751 527.61522383 1569.6766751 526.85209883 1570.7816751 526.06584883 C1580.45096514 516.61631538 1586.86599416 503.18791831 1587.78467476 489.65010965 C1587.78608361 488.35753626 1587.78749246 487.06496286 1587.78894401 485.73322058 C1587.79245008 485.00387186 1587.79595616 484.27452315 1587.79956847 483.52307296 C1587.80883941 481.08997847 1587.80397037 478.6571256 1587.79910064 476.22402143 C1587.80283908 474.45755336 1587.80744138 472.69108694 1587.81283128 470.92462313 C1587.8250529 466.07843233 1587.82480179 461.23231061 1587.82244253 456.38610792 C1587.82203415 451.15620058 1587.83307563 445.92631532 1587.84255767 440.69641829 C1587.85916453 430.45247081 1587.86466709 420.20854635 1587.86578242 409.96458654 C1587.86673314 401.63585079 1587.8708446 393.30712262 1587.87718368 384.97838926 C1587.89479596 361.3567702 1587.90402268 337.7351693 1587.90252273 314.11354361 C1587.90244282 312.84032387 1587.9023629 311.56710412 1587.90228057 310.25530195 C1587.90219881 308.98052457 1587.90211705 307.70574719 1587.90203281 306.3923402 C1587.90122012 285.73849007 1587.92035346 265.0847129 1587.9485573 244.43088387 C1587.97729869 223.21570499 1587.99109687 202.00056168 1587.98936975 180.78536284 C1587.98870624 168.87791003 1587.99418147 156.97053369 1588.01572585 145.06309843 C1588.03395422 134.92350571 1588.03827141 124.78402412 1588.024707 114.6444221 C1588.0181855 109.47407397 1588.01803065 104.30393894 1588.0354135 99.1336112 C1588.05118551 94.39351778 1588.0482385 89.65380569 1588.03084524 84.91372134 C1588.0277844 83.20578018 1588.0313729 81.49781026 1588.04256539 79.78990303 C1588.15243521 61.82375144 1584.34427424 47.01095571 1571.79339385 33.47991133 C1560.23845097 22.74319411 1547.17222935 19.21855142 1531.84882271 19.24954766 C1530.22292929 19.24688515 1530.22292929 19.24688515 1528.56418953 19.24416884 C1524.90569683 19.23941059 1521.24724326 19.24180628 1517.58874869 19.24412775 C1514.93856161 19.24217552 1512.28837754 19.23982779 1509.63819152 19.23699978 C1503.84433677 19.23162355 1498.05049014 19.22998306 1492.25663309 19.23075052 C1483.5829119 19.23188518 1474.90920017 19.22730731 1466.23548111 19.22161968 C1451.45408832 19.21210367 1436.67269742 19.20739987 1421.89130187 19.20531034 C1406.90670291 19.20318279 1391.92210687 19.19892516 1376.9375093 19.19206762 C1375.99191473 19.19163701 1375.04632016 19.1912064 1374.0720712 19.19076273 C1370.22095298 19.18900441 1366.36983477 19.18723477 1362.51871656 19.18544971 C1315.81637865 19.16384455 1269.11404015 19.15297047 1222.41169837 19.14397347 C1207.26959864 19.14104009 1192.12749905 19.13767028 1176.98539948 19.13400626 C1175.91737118 19.13374797 1174.84934288 19.13348968 1173.74895008 19.13322356 C1169.42820205 19.13217735 1165.10745402 19.13112893 1160.78670599 19.13007774 C1086.88205123 19.11211332 1012.97739625 19.09673335 939.07273962 19.08931871 C933.267069 19.08873473 927.46139839 19.08813747 921.65572778 19.08754109 C920.504057 19.08742297 919.35238622 19.08730485 918.16581633 19.08718315 C906.49760113 19.08598575 894.82938594 19.08477699 883.16117075 19.08355062 C880.82164362 19.08330539 878.48211649 19.08306153 876.14258936 19.08281905 C800.99031368 19.07502773 725.83805361 19.05264066 650.68578475 19.02014262 C596.69099317 18.99680157 542.69620468 18.9752475 488.70140815 18.96813631 C487.59132426 18.96798929 486.48124037 18.96784227 485.33751757 18.96769079 C460.97010708 18.96450619 436.60269662 18.96245515 412.23528595 18.96146324 C402.43120579 18.9610485 392.62712564 18.9604936 382.82304549 18.95990133 C381.21353357 18.95981033 381.21353357 18.95981033 379.57150626 18.95971749 C344.98890367 18.95770041 310.4063195 18.94345407 275.82372333 18.92295633 C240.9975737 18.90238739 206.17144536 18.89447505 171.34529026 18.90403409 C166.53494262 18.90535259 161.72459496 18.90653062 156.91424727 18.90762472 C155.97127007 18.90784457 155.02829287 18.90806442 154.0567406 18.90829093 C139.11373244 18.91140761 124.17076496 18.90106958 109.22776623 18.88514917 C94.54108255 18.86978 79.85445525 18.86863109 65.16776963 18.88269741 C56.55318019 18.89051896 47.93876279 18.88736244 39.32419046 18.86806025 C33.60435514 18.85633478 27.88464565 18.85909516 22.16481717 18.87367489 C18.92139393 18.88153551 15.67837346 18.880995 12.43496088 18.86705585 C8.94520521 18.85303129 5.456347 18.86367481 1.96662247 18.88040417 C0.97427672 18.8704868 -0.01806904 18.86056943 -1.04048587 18.85035153 C-15.88292428 19.00045141 -30.83547996 26.03099876 -40.27691865 37.59319258 Z " fill="#FDFDFD" transform="translate(71.46832489967346,76.62165117263794)"/>
<path d="M0 0 C2.0824802 2.65301247 3.74615679 5.26125025 5.2421875 8.28125 C22.91835486 43.33145703 47.08698722 76.62410912 79 100 C80.05832031 100.77988281 81.11664063 101.55976563 82.20703125 102.36328125 C100.467097 115.39975236 121.53824933 126.44473724 143 133 C144.13598633 133.34708008 144.13598633 133.34708008 145.29492188 133.70117188 C182.34340472 144.8359618 221.42857849 148.70080221 260 149 C260.90032959 149.00753296 261.80065918 149.01506592 262.72827148 149.02282715 C290.05459634 149.23829129 317.37225448 149.02094501 344.69458008 148.56936646 C357.79600793 148.35381535 370.89785722 148.16624183 384 148 C385.11773426 147.98576618 385.11773426 147.98576618 386.25804901 147.97124481 C458.29741984 147.06738472 534.0137557 146.54951615 604.47583008 163.19238281 C608.26024411 164.0596389 612.05709905 164.84895866 615.86328125 165.61328125 C616.88219452 165.8181591 616.88219452 165.8181591 617.92169189 166.0271759 C619.3278092 166.30973487 620.73394765 166.59218862 622.1401062 166.87454224 C642.73539844 171.02658324 663.01563759 175.77826654 682.98974609 182.34472656 C685.81563385 183.2658685 688.65664806 184.13447652 691.5 185 C693.66696756 185.66568798 695.83359784 186.33247428 698 187 C698.7537793 187.23219238 699.50755859 187.46438477 700.28417969 187.70361328 C702.81576878 188.48573427 705.34551281 189.27361013 707.875 190.0625 C708.67228516 190.30806641 709.46957031 190.55363281 710.29101562 190.80664062 C713.83883466 191.91775439 717.30277319 193.07649836 720.7109375 194.56640625 C724.58397892 196.25453713 728.51608355 197.49241697 732.546875 198.7421875 C736.49276959 200.17949299 740.24768078 201.90740252 744.05908203 203.66601562 C747.8338814 205.37824406 751.65730021 206.95641532 755.48779297 208.5390625 C767.59748948 213.55448072 779.51139436 218.93060195 791.375 224.5 C792.12605011 224.85083649 792.87710022 225.20167297 793.65090942 225.56314087 C795.79852105 226.56792672 797.94277751 227.57950923 800.0859375 228.59375 C801.04679008 229.04315193 801.04679008 229.04315193 802.02705383 229.50163269 C805.30611035 231.06586119 808.1357397 232.77858449 811 235 C746.36854089 235.13712704 681.73706455 235.2643214 617.10549927 235.33874512 C616.14881054 235.33984957 615.19212181 235.34095403 614.20644251 235.34209196 C593.41462041 235.36603566 572.62279676 235.38819705 551.83097082 235.40852264 C541.63454661 235.41850126 531.43812282 235.4288737 521.24169922 235.43945312 C520.22703681 235.4404992 519.21237441 235.44154527 518.16696466 235.44262304 C485.28353227 235.47670898 452.40020991 235.53679579 419.51684417 235.61037777 C385.72265731 235.68586044 351.92853133 235.73508862 318.1342616 235.75131992 C313.36018959 235.75362513 308.5861178 235.75623023 303.81204605 235.75901794 C302.87244765 235.75955733 301.93284924 235.76009671 300.96477816 235.76065244 C285.84464865 235.77010327 270.72470749 235.80719973 255.60465476 235.85465627 C240.40091822 235.9017847 225.19736826 235.91973627 209.99356125 235.90801102 C200.96245842 235.90193002 191.9320389 235.91811396 182.90105956 235.96638034 C176.86335179 235.99644186 170.82609001 235.9972664 164.78835111 235.97465451 C161.35097283 235.9626083 157.91488394 235.96295354 154.4776455 235.99906546 C128.59484008 236.22352238 128.59484008 236.22352238 117 227 C115.49833014 225.96489977 113.99391979 224.93373789 112.484375 223.91015625 C111.23227555 222.97059811 109.98726351 222.02151071 108.75 221.0625 C108.08162109 220.55307861 107.41324219 220.04365723 106.72460938 219.51879883 C102.01432357 215.88880683 97.52110251 212.06979982 93.16796875 208.015625 C91.09777453 206.09090389 88.97046891 204.26252513 86.8125 202.4375 C82.8043158 198.93333896 79.41298621 195.0758389 76 191 C75.27296875 190.17242188 74.5459375 189.34484375 73.796875 188.4921875 C50.7175918 161.76488857 34.8126946 129.74821327 22.97558594 96.70800781 C22.12108029 94.33609172 21.24341073 91.97523864 20.3515625 89.6171875 C12.02393983 67.33546211 7.39636084 44.12723384 3.08699036 20.80830383 C2.23756188 16.21529456 1.32407558 11.64097399 0.32543945 7.078125 C-0.04790914 4.69407155 -0.05396586 2.4092468 0 0 Z " fill="#F37D34" transform="translate(171,381)"/>
<path d="M0 0 C-0.38929688 0.57363281 -0.77859375 1.14726562 -1.1796875 1.73828125 C-26.18237505 39.70319161 -38.47377812 85.26871063 -44 130 C-44.0875354 130.70571136 -44.1750708 131.41142273 -44.26525879 132.13851929 C-45.89530305 145.63529288 -46.32511381 158.97635973 -46.25 172.5625 C-46.24689819 173.56580353 -46.24379639 174.56910706 -46.24060059 175.60281372 C-46.15784425 198.4979003 -44.95499614 220.79206292 -40.52783203 243.30517578 C-40.00797898 245.95926363 -39.51511233 248.61719384 -39.02734375 251.27734375 C-37.00842587 262.08908565 -34.37777656 272.53723285 -31 283 C-30.71060547 283.92458008 -30.42121094 284.84916016 -30.12304688 285.80175781 C-18.20060367 323.63776598 0.93750157 359.63763516 29 388 C29.63180176 388.64018066 30.26360352 389.28036133 30.91455078 389.93994141 C34.70797512 393.77357549 38.52288068 397.58472723 42.359375 401.37524414 C44.2460815 403.24370125 46.12288904 405.12190785 48 407 C27.62391985 407.09364267 7.24788366 407.16407659 -13.12836742 407.20724869 C-22.59045311 407.22783138 -32.0524047 407.25586944 -41.5144043 407.30175781 C-49.76615138 407.34175751 -58.0178013 407.36746398 -66.26964265 407.37635398 C-70.63473536 407.3815466 -74.99955022 407.39366051 -79.36455345 407.42292023 C-83.48252864 407.45029748 -87.60011451 407.45840053 -91.71817207 407.45243073 C-93.22047423 407.45352108 -94.72279094 407.46134123 -96.22501373 407.4768219 C-113.36635316 407.64463414 -126.54945563 403.10361089 -139.25 391.4375 C-148.69143723 381.60517525 -153.29619643 368.99699576 -153.30107117 355.48518372 C-153.30913011 354.54592991 -153.31718905 353.60667611 -153.3254922 352.63896006 C-153.34979953 349.50123457 -153.35991601 346.36363152 -153.36987305 343.22583008 C-153.38404833 340.97155805 -153.39896479 338.71729057 -153.41456604 336.46302795 C-153.46173527 329.06523443 -153.48749516 321.6674298 -153.51171875 314.26953125 C-153.52113118 311.71582192 -153.53062568 309.16211289 -153.54020119 306.60840416 C-153.57869256 295.97701383 -153.61220723 285.34563607 -153.63057232 274.71419239 C-153.63541096 271.95928245 -153.64029308 269.2043726 -153.64526367 266.44946289 C-153.64649346 265.76484498 -153.64772325 265.08022708 -153.64899031 264.37486317 C-153.66989562 253.3114002 -153.72838784 242.24847313 -153.80264618 231.1852527 C-153.87847027 219.79436753 -153.91901289 208.40388446 -153.92813712 197.01272315 C-153.93411452 190.63014071 -153.95478169 184.2484387 -154.01270103 177.8660984 C-154.06646945 171.85006466 -154.076458 165.83545377 -154.05455589 159.81923485 C-154.05384575 157.62643733 -154.06819369 155.43356764 -154.09976578 153.24099731 C-154.3099046 137.77966914 -151.38324429 126.57019356 -144 113 C-143.22853076 111.52848929 -142.45852761 110.05620881 -141.69015026 108.58308125 C-127.34570879 81.19920025 -105.20648377 55.83140058 -80 38 C-79.32001953 37.51869629 -78.64003906 37.03739258 -77.93945312 36.54150391 C-58.0154224 22.59199722 -36.82240442 11.61154899 -14.125 2.9375 C-13.0716748 2.53072021 -12.01834961 2.12394043 -10.93310547 1.70483398 C-9.94713379 1.33688721 -8.96116211 0.96894043 -7.9453125 0.58984375 C-7.06375488 0.25847412 -6.18219727 -0.07289551 -5.27392578 -0.41430664 C-3 -1 -3 -1 0 0 Z " fill="#77BA4A" transform="translate(173,209)"/>
<path d="M0 0 C1.67352598 -0.00298657 1.67352598 -0.00298657 3.38086057 -0.00603348 C4.60653076 -0.00312064 5.83220095 -0.0002078 7.09501266 0.00279331 C8.39700001 0.00193889 9.69898736 0.00108446 11.04042888 0.00020415 C14.65710304 -0.0020349 18.27374766 0.00197243 21.89041805 0.00698221 C25.78949801 0.01129496 29.68857626 0.00983969 33.58765793 0.00907993 C40.34401215 0.00855522 47.10035673 0.01169651 53.85670853 0.01731777 C63.62529567 0.02543992 73.39387813 0.02804873 83.16246828 0.02930576 C99.01081499 0.03149515 114.85915655 0.0381522 130.70750046 0.04760838 C146.10398457 0.0567854 161.50046729 0.06386482 176.89695358 0.06811619 C177.84576728 0.06837891 178.79458098 0.06864164 179.77214661 0.06891232 C184.53199872 0.07021734 189.29185085 0.07148106 194.05170298 0.07272422 C233.54830053 0.08309333 273.04489234 0.10070859 312.54148483 0.12304783 C283.49332127 29.7491935 230.07252024 34.42002305 191.09452438 41.33856297 C184.97358385 42.42687797 178.85535228 43.53041408 172.73698044 44.63306332 C171.24862889 44.90124557 169.76022598 45.16914287 168.27177048 45.43674755 C149.6304295 48.79060281 131.04397918 52.41772059 112.58298874 56.66113377 C110.61851295 57.10561932 108.64841159 57.52501485 106.67820358 57.94336033 C84.63018697 62.70945663 63.15409033 70.01573531 42.54148483 79.12304783 C41.79543991 79.44595798 41.04939499 79.76886814 40.28074265 80.10156345 C17.8136932 89.87336434 -1.79316312 103.22523718 -19.45851517 120.12304783 C-20.40855423 121.02023533 -21.35859329 121.91742283 -22.33742142 122.84179783 C-28.85055648 129.14658504 -34.21723059 135.74095687 -39.45851517 143.12304783 C-39.98574173 143.83976658 -40.51296829 144.55648533 -41.05617142 145.29492283 C-43.13254701 148.12799506 -45.04043818 150.90014559 -46.45851517 154.12304783 C-46.78851517 154.12304783 -47.11851517 154.12304783 -47.45851517 154.12304783 C-47.55222497 139.57971978 -47.62235776 125.036439 -47.66576385 110.49287033 C-47.68633255 103.73904062 -47.71434303 96.98539921 -47.76027298 90.23169041 C-47.80461121 83.70888896 -47.8276814 77.18620931 -47.83802414 70.66326427 C-47.84539097 68.1798842 -47.85977647 65.69651429 -47.88143539 63.21321774 C-47.91064979 59.72353854 -47.91446351 56.23465663 -47.91261673 52.744874 C-47.92699783 51.72778858 -47.94137894 50.71070316 -47.95619583 49.66279697 C-47.88478443 37.11832442 -42.38021773 24.99024052 -34.04445267 15.61914158 C-24.84037486 6.93647704 -12.90105051 -0.00507915 0 0 Z " fill="#6ACDEA" transform="translate(67.45851516723633,95.87695217132568)"/>
<path d="M0 0 C24.42 0 48.84 0 74 0 C74 35.31 74 70.62 74 107 C79.28 107 84.56 107 90 107 C90 114.26 90 121.52 90 129 C67.23 129 44.46 129 21 129 C21 124.38 21 119.76 21 115 C20.15179687 115.59167969 19.30359375 116.18335938 18.4296875 116.79296875 C10.25871224 122.35040761 2.5526748 126.22772025 -7 129 C-8.13308594 129.36738281 -9.26617188 129.73476563 -10.43359375 130.11328125 C-16.36486939 131.55635011 -22.49466473 131.29710691 -28.5612793 131.26074219 C-30.6655011 131.25011114 -32.76885255 131.26063257 -34.87304688 131.2734375 C-53.19940966 131.29417599 -69.84630259 128.49815784 -84 116 C-95.22760695 104.36715034 -96.42236714 90.17013944 -96.20703125 74.83203125 C-95.84064063 63.08280582 -90.81091486 54.30578909 -82.3125 46.25 C-63.83791716 31.09869802 -39.53920219 31.91800037 -17 33 C-4.73224772 34.28726628 6.42174871 39.33739897 16 47 C16.33 38.42 16.66 29.84 17 21 C11.39 21 5.78 21 0 21 C0 14.07 0 7.14 0 0 Z " fill="#FCFDFD" transform="translate(1495,226)"/>
<path d="M0 0 C1.175625 0.02320313 1.175625 0.02320313 2.375 0.046875 C18.95864916 0.43555428 34.28454077 5.78088236 48 15 C48.99 15.66 49.98 16.32 51 17 C51 12.38 51 7.76 51 3 C65.85 3 80.7 3 96 3 C96 18.18 96 33.36 96 49 C79.83 49 63.66 49 47 49 C45.02 44.05 45.02 44.05 43 39 C38.09071517 30.69197952 27.88240651 27.00123668 18.96875 24.6953125 C4.20870239 21.76280304 -11.90395918 23.49967757 -24.9375 31.1875 C-34.22631127 37.65649356 -40.82669335 45.87934619 -43.25 57 C-45.30273921 70.61587567 -45.05034329 83.41773043 -37.4609375 95.4375 C-29.63205706 105.23287647 -18.07113666 109.34160716 -6 111 C9.04005788 112.42423633 26.1052828 111.38894039 38.98046875 102.703125 C44.40564252 98.1279301 46.75754313 93.7273706 49 87 C41.74 87 34.48 87 27 87 C27 79.41 27 71.82 27 64 C56.04 64 85.08 64 115 64 C115 71.59 115 79.18 115 87 C109.72 87 104.44 87 99 87 C99 101.85 99 116.7 99 132 C83.49 132 67.98 132 52 132 C51.67 128.04 51.34 124.08 51 120 C49.700625 120.9075 48.40125 121.815 47.0625 122.75 C24.57625448 137.74083035 -7.24196171 137.6592135 -33 133 C-33.76908691 132.87109375 -34.53817383 132.7421875 -35.33056641 132.609375 C-58.84450941 128.64372074 -80.17643655 119.89315406 -95.6953125 100.8671875 C-103.00513348 90.40582693 -105.55885952 79.21103321 -105.4375 66.625 C-105.42920166 65.51809814 -105.42090332 64.41119629 -105.41235352 63.27075195 C-105.25229919 55.55795592 -104.5827485 48.94223968 -101 42 C-100.27103516 40.50533203 -100.27103516 40.50533203 -99.52734375 38.98046875 C-93.31403809 27.30297938 -84.42167093 19.42985527 -73 13 C-72.22269531 12.55011719 -71.44539063 12.10023438 -70.64453125 11.63671875 C-48.77516609 -0.19545034 -24.22207103 -0.62267535 0 0 Z " fill="#FCFCFD" transform="translate(317,223)"/>
<path d="M0 0 C24.42 0 48.84 0 74 0 C74.33 23.76 74.66 47.52 75 72 C87.21 67.05 99.42 62.1 112 57 C105.4 56.67 98.8 56.34 92 56 C92 49.07 92 42.14 92 35 C122.03 35 152.06 35 183 35 C183 41.93 183 48.86 183 56 C179.78056641 56.05994141 179.78056641 56.05994141 176.49609375 56.12109375 C167.58596146 56.55771667 160.16399506 59.55831742 152.0625 63.0625 C150.68639861 63.63810819 149.30944652 64.21168695 147.93164062 64.78320312 C144.61100562 66.1656596 141.30256285 67.57481834 138 69 C139.3349561 71.9341016 140.82100187 74.11548086 143.01831055 76.4675293 C143.63042892 77.1246843 144.2425473 77.78183929 144.87321472 78.45890808 C147.70805547 81.43708383 150.557442 84.4002464 153.42602539 87.34594727 C154.92519393 88.89820091 156.40987177 90.4645908 157.87915039 92.04516602 C166.99022602 102.48910392 166.99022602 102.48910392 179.38076782 107.49014282 C182.25823046 107.52855899 185.13166343 107.23219036 188 107 C188 114.26 188 121.52 188 129 C159.29 129 130.58 129 101 129 C101 121.74 101 114.48 101 107 C105.62 106.67 110.24 106.34 115 106 C109.39 100.39 103.78 94.78 98 89 C92.92492271 90.69169243 88.0814101 92.497213 83.1875 94.625 C82.02444336 95.08326172 82.02444336 95.08326172 80.83789062 95.55078125 C78.61116468 96.53654094 76.83711921 97.39741873 75 99 C73.98639391 101.84945702 73.99030636 103.91742105 74 107 C79.28 107 84.56 107 90 107 C90 114.26 90 121.52 90 129 C60.63 129 31.26 129 1 129 C1 121.74 1 114.48 1 107 C6.28 107 11.56 107 17 107 C17 78.62 17 50.24 17 21 C11.39 21 5.78 21 0 21 C0 14.07 0 7.14 0 0 Z " fill="#FDFDFD" transform="translate(807,226)"/>
<path d="M0 0 C2.02040197 0.01078986 4.03992621 -0.00000542 6.06030273 -0.01269531 C20.41062602 0.01559512 34.8556088 2.05236241 45.70288086 12.35839844 C50.03702256 17.44448761 52.45463615 23.43340306 52.4375 30.09936523 C52.43742447 31.08015549 52.43734894 32.06094574 52.43727112 33.07145691 C52.43210983 34.12778824 52.42694855 35.18411957 52.42163086 36.27246094 C52.41950844 37.89750298 52.41950844 37.89750298 52.41734314 39.55537415 C52.4117402 43.01969144 52.39918719 46.48394439 52.38647461 49.94824219 C52.38145999 52.29524646 52.37689702 54.64225175 52.37280273 56.98925781 C52.36176981 62.74644411 52.34450318 68.50358223 52.32397461 74.26074219 C57.93397461 74.26074219 63.54397461 74.26074219 69.32397461 74.26074219 C69.32397461 81.52074219 69.32397461 88.78074219 69.32397461 96.26074219 C39.95397461 96.26074219 10.58397461 96.26074219 -19.67602539 96.26074219 C-19.67602539 89.00074219 -19.67602539 81.74074219 -19.67602539 74.26074219 C-14.72602539 74.26074219 -9.77602539 74.26074219 -4.67602539 74.26074219 C-4.74506739 68.81596047 -4.83311426 63.37193461 -4.93847656 57.92773438 C-4.97164835 56.077234 -4.99970426 54.22663433 -5.02246094 52.37597656 C-5.05614989 49.70953216 -5.10847199 47.04399129 -5.16430664 44.37792969 C-5.17069656 43.55582001 -5.17708649 42.73371033 -5.18367004 41.88668823 C-5.30816967 36.97847006 -5.93214975 33.49628766 -8.67602539 29.26074219 C-16.22789757 24.49977929 -24.99481115 24.43036517 -33.67602539 25.26074219 C-38.63351685 26.74287881 -42.47104055 28.33187961 -45.26831055 32.80957031 C-47.00844641 37.07570984 -47.15134189 40.60037923 -47.18774414 45.15917969 C-47.21467094 46.41161972 -47.21467094 46.41161972 -47.24214172 47.68936157 C-47.29602461 50.3381048 -47.330069 52.98667012 -47.36352539 55.63574219 C-47.39671798 57.43915224 -47.43120943 59.24253889 -47.46704102 61.04589844 C-47.55173814 65.45071753 -47.61865373 69.85548588 -47.67602539 74.26074219 C-43.05602539 74.26074219 -38.43602539 74.26074219 -33.67602539 74.26074219 C-33.67602539 81.52074219 -33.67602539 88.78074219 -33.67602539 96.26074219 C-63.04602539 96.26074219 -92.41602539 96.26074219 -122.67602539 96.26074219 C-122.67602539 89.00074219 -122.67602539 81.74074219 -122.67602539 74.26074219 C-116.73602539 74.26074219 -110.79602539 74.26074219 -104.67602539 74.26074219 C-104.67602539 57.43074219 -104.67602539 40.60074219 -104.67602539 23.26074219 C-110.28602539 23.26074219 -115.89602539 23.26074219 -121.67602539 23.26074219 C-121.67602539 16.33074219 -121.67602539 9.40074219 -121.67602539 2.26074219 C-99.23602539 2.26074219 -76.79602539 2.26074219 -53.67602539 2.26074219 C-53.18102539 10.67574219 -53.18102539 10.67574219 -52.67602539 19.26074219 C-51.89227539 18.22949219 -51.10852539 17.19824219 -50.30102539 16.13574219 C-37.89842814 1.72427355 -17.73015367 -0.11242141 0 0 Z " fill="#FCFDFD" transform="translate(1315.676025390625,258.7392578125)"/>
<path d="M0 0 C6.24973423 7.15924892 7.59034557 14.34438425 7.390625 23.62890625 C7.38496521 24.63718979 7.37930542 25.64547333 7.37347412 26.68431091 C7.3512609 29.87337736 7.3010928 33.06127886 7.25 36.25 C7.22991555 38.42511387 7.2116682 40.60024552 7.1953125 42.77539062 C7.15144547 48.07986915 7.08252308 53.38348775 7 58.6875 C12.94 58.6875 18.88 58.6875 25 58.6875 C25 65.9475 25 73.2075 25 80.6875 C1.24 80.6875 -22.52 80.6875 -47 80.6875 C-47.33 77.0575 -47.66 73.4275 -48 69.6875 C-49.44375 70.595 -50.8875 71.5025 -52.375 72.4375 C-65.78460767 80.43060415 -79.6717449 83.20141041 -95.15820312 82.96875 C-97.26189944 82.93732223 -99.36484076 82.92773003 -101.46875 82.921875 C-118.48312838 82.82684849 -133.97564695 80.74878469 -147 68.6875 C-151.15853089 63.4469024 -152.4370141 57.68939695 -152.33984375 51.125 C-151.43478287 44.63352889 -147.34742668 39.13175638 -142.26953125 35.16015625 C-121.06230346 21.399184 -97.93999268 21.37414467 -73.5 21.5625 C-71.21224352 21.57255536 -68.92448275 21.58167666 -66.63671875 21.58984375 C-61.09105022 21.61164196 -55.54554588 21.64491475 -50 21.6875 C-50.12255961 19.90691338 -50.25617116 18.12708483 -50.39453125 16.34765625 C-50.46776611 15.35644775 -50.54100098 14.36523926 -50.61645508 13.34399414 C-50.82704156 10.55498088 -50.82704156 10.55498088 -52.6875 8.125 C-58.35832424 4.59989304 -63.89218395 4.32269311 -70.375 4.3125 C-71.18710938 4.28800781 -71.99921875 4.26351563 -72.8359375 4.23828125 C-78.94654781 4.20890332 -82.90186136 5.22687913 -88 8.6875 C-89.32 11.3275 -90.64 13.9675 -92 16.6875 C-109.16 16.6875 -126.32 16.6875 -144 16.6875 C-142.86632647 6.48443826 -141.15356699 3.74666774 -134.25 -3 C-104.34664215 -24.27738924 -28.1638465 -25.61963347 0 0 Z " fill="#FBFCFD" transform="translate(1156,274.3125)"/>
<path d="M0 0 C1.64111328 1.19458008 1.64111328 1.19458008 3 3 C4.43883009 12.3289045 2.29116465 22.49247085 1.125 31.8125 C0.94858663 33.26880377 0.77280287 34.72518396 0.59765625 36.18164062 C-1.21855909 51.18950876 -3.1631312 66.14583976 -6 81 C-6.35578125 82.89298828 -6.35578125 82.89298828 -6.71875 84.82421875 C-6.9559375 85.97535156 -7.193125 87.12648438 -7.4375 88.3125 C-7.74494141 89.82263672 -7.74494141 89.82263672 -8.05859375 91.36328125 C-9.18080197 94.50639557 -10.37442306 95.95580081 -13 98 C-15.25390625 98.71484375 -15.25390625 98.71484375 -17.5625 98.9375 C-18.32691406 99.02902344 -19.09132813 99.12054688 -19.87890625 99.21484375 C-22 99 -22 99 -23.63671875 97.8046875 C-25.22645194 95.70022695 -26.19569508 93.60423416 -27.25 91.1875 C-29.66559288 86.29180285 -32.04235357 82.53737809 -37 80 C-44.3300387 77.7738401 -50.77000138 81.32047181 -57.15234375 84.65405273 C-65.22086072 88.98420561 -65.22086072 88.98420561 -72 95 C-72.76586946 97.61536076 -72.76586946 97.61536076 -73 100 C-66.3821807 104.77098601 -61.26872758 105.19407879 -53.375 105.1875 C-52.57392822 105.18814453 -51.77285645 105.18878906 -50.94750977 105.18945312 C-45.60765517 105.14205 -40.63417207 104.58261434 -35.40625 103.453125 C-31.51829946 102.72097847 -27.94703041 102.74939489 -24 103 C-22 105 -22 105 -21.5625 108.3125 C-22 112 -22 112 -23.875 114.75 C-33.41413099 121.61817431 -46.0968468 121.19616633 -57.375 121.25 C-58.98375 121.2809375 -58.98375 121.2809375 -60.625 121.3125 C-69.18767097 121.3541675 -77.69062426 120.5469017 -84.5625 114.9375 C-85.20316406 114.43089844 -85.84382813 113.92429687 -86.50390625 113.40234375 C-88 112 -88 112 -89 110 C-97.60475382 110.30931714 -105.20392414 112.75320398 -113.3125 115.5 C-115.78698237 116.32525328 -118.26221457 117.14826249 -120.73828125 117.96875 C-121.82149658 118.33419922 -122.90471191 118.69964844 -124.02075195 119.07617188 C-130.9123928 121.21318482 -137.8161924 122.6208475 -144.4375 119.25 C-146.83116969 117.14824125 -148.06258369 115.99973219 -149 113 C-149 111.68 -149 110.36 -149 109 C-149.60884033 109.20157715 -150.21768066 109.4031543 -150.8449707 109.61083984 C-153.66506282 110.53975487 -156.48870578 111.45740342 -159.3125 112.375 C-160.26962891 112.69210937 -161.22675781 113.00921875 -162.21289062 113.3359375 C-172.03693566 116.5113864 -181.47581982 118.35482875 -191.8125 118.3125 C-192.61880859 118.32861328 -193.42511719 118.34472656 -194.25585938 118.36132812 C-200.63604721 118.36654496 -204.71357086 116.91421974 -209.6875 112.75 C-216.00590625 105.2362196 -215.82681196 96.89864689 -215.24560547 87.56494141 C-212.58788931 59.80950808 -197.22691469 32.34651573 -175.97265625 14.47265625 C-171.01688329 10.773 -166.34379506 8.13493704 -160 9 C-157.17332089 9.88838486 -156.19330589 10.74098916 -154.4140625 13.125 C-149.75875913 22.5899262 -153.24158901 36.3345825 -156.30664062 45.98242188 C-161.51453084 61.13664889 -168.94482872 74.35469502 -180 86 C-181.2146712 87.41123625 -182.42346887 88.82755955 -183.625 90.25 C-186.79602499 93.90373372 -190.25464032 96.94256352 -194 100 C-192.03358703 102.39632693 -192.03358703 102.39632693 -188.3125 102.3125 C-177.48482118 102.0361956 -166.89843098 98.86065605 -156.63476562 95.6262207 C-153.21867842 94.56458466 -150.61859489 94 -147 94 C-146.9175 93.195625 -146.835 92.39125 -146.75 91.5625 C-145.94721502 87.74927134 -144.61080196 84.66247765 -142.95703125 81.15625 C-141.8862793 78.91036963 -141.8862793 78.91036963 -141.25 76 C-139.21817857 71.12362858 -136.09972052 67.32293137 -132 64 C-128.81497905 62.99965046 -127.40449617 63.31910077 -124 64 C-121.5 65.5 -121.5 65.5 -120 67 C-120.2743923 72.35064977 -122.46457059 75.39429277 -125.4375 79.625 C-129.49611852 85.79410015 -132.17161817 92.32996431 -132.0625 99.75 C-132.05347656 100.54921875 -132.04445313 101.3484375 -132.03515625 102.171875 C-132.02355469 102.77515625 -132.01195312 103.3784375 -132 104 C-123.71416552 104.8513665 -116.40516677 101.14080166 -108.77929688 98.28710938 C-102.74311216 96.09500278 -97.37826598 94.488685 -90.93139648 94.30859375 C-88.66020745 94.16338882 -88.66020745 94.16338882 -86.875 91.4375 C-85.946875 89.7359375 -85.946875 89.7359375 -85 88 C-75.06638499 75.81340014 -56.3030667 64.67882152 -40.5546875 62.69140625 C-32.84195049 62.32038537 -28.14939505 64.43223948 -22 69 C-21.67 69.33 -21.34 69.66 -21 70 C-19.04731314 60.74234079 -17.62697636 51.51397451 -16.5703125 42.11328125 C-16.45153748 41.0740451 -16.33276245 40.03480896 -16.21038818 38.96408081 C-15.71918856 34.64606169 -15.23222228 30.32796246 -14.77587891 26.00610352 C-14.4353093 22.81011661 -14.06757847 19.61821003 -13.6953125 16.42578125 C-13.59928741 15.45183914 -13.50326233 14.47789703 -13.40432739 13.47444153 C-12.85180319 8.91135196 -12.46032727 6.57316679 -9.51904297 2.91088867 C-6.10319338 0.31970291 -4.28755555 -0.4182981 0 0 Z " fill="#FAFBFC" transform="translate(1309,376)"/>
<path d="M0 0 C1.46472392 1.34596252 2.90590282 2.71840282 4.3125 4.125 C4.3125 8.74223135 3.7729628 10.62170345 0.625 14.0625 C-2.97060269 16.30127149 -4.55031226 16.76856254 -8.6875 16.125 C-9.6775 15.465 -10.6675 14.805 -11.6875 14.125 C-20.7673508 12.63649987 -27.48645153 17.0619748 -34.6875 22.125 C-39.23724624 25.5519201 -43.48471071 29.28491718 -47.6875 33.125 C-48.42226562 33.78886719 -49.15703125 34.45273437 -49.9140625 35.13671875 C-54.34499372 39.33196214 -56.96301663 43.67603327 -59.6875 49.125 C-50.96276579 44.03638 -42.61667645 38.44648748 -34.2578125 32.78320312 C-33.23945312 32.09806641 -32.22109375 31.41292969 -31.171875 30.70703125 C-30.26147461 30.09061768 -29.35107422 29.4742041 -28.41308594 28.83911133 C-24.02362697 26.07859615 -20.2204768 23.69408845 -14.9375 23.8125 C-13.80054688 23.81830078 -13.80054688 23.81830078 -12.640625 23.82421875 C-10.6875 24.125 -10.6875 24.125 -8.6875 26.125 C-8.46044922 28.00439453 -8.46044922 28.00439453 -8.4921875 30.2578125 C-8.50185547 31.46630859 -8.50185547 31.46630859 -8.51171875 32.69921875 C-8.53685547 33.96185547 -8.53685547 33.96185547 -8.5625 35.25 C-8.57152344 36.09949219 -8.58054687 36.94898438 -8.58984375 37.82421875 C-8.61344353 39.92459884 -8.64931517 42.02483444 -8.6875 44.125 C-3.60446314 44.23820856 -3.60446314 44.23820856 1.3125 43.125 C2.93335223 42.98214523 4.56063517 42.90466927 6.1875 42.875 C7.03054688 42.84921875 7.87359375 42.8234375 8.7421875 42.796875 C11.85504638 43.19426124 13.74155952 44.37418032 16.3125 46.125 C16.52003906 45.39796875 16.72757813 44.6709375 16.94140625 43.921875 C21.48394221 29.09686226 29.56299965 18.87450035 40.3125 8.125 C42.40625 7.82421875 42.40625 7.82421875 44.8125 7.8125 C45.6065625 7.79574219 46.400625 7.77898437 47.21875 7.76171875 C47.9096875 7.88160156 48.600625 8.00148438 49.3125 8.125 C51.51736818 11.43230226 51.95004219 12.2886592 51.3125 16.125 C49.64737192 18.37627649 48.01828411 20.3380791 46.125 22.375 C37.7659972 31.48443513 37.7659972 31.48443513 35.3125 43.125 C39.91538662 42.55942792 43.37264979 40.58147384 47.25 38.1875 C47.90822754 37.78563477 48.56645508 37.38376953 49.24462891 36.96972656 C60.1206616 30.23954696 70.25231408 22.49127097 80.36474609 14.67871094 C82.34124406 13.15264421 84.32502219 11.63673034 86.3125 10.125 C87.25996094 9.39458496 87.25996094 9.39458496 88.2265625 8.64941406 C91.333122 6.32280634 93.55211579 4.75685879 97.4375 4.5 C101.3125 5.125 101.3125 5.125 104.3125 7.1875 C106.72858993 10.73613208 106.76932974 13.01216732 106.3125 17.125 C105.53121863 21.23582951 104.50429069 25.26736705 103.4375 29.3125 C103.12796387 30.48852783 102.81842773 31.66455566 102.49951172 32.8762207 C96.10701757 56.45225129 88.66353917 79.51535425 72.3125 98.125 C71.64992188 98.93066406 70.98734375 99.73632812 70.3046875 100.56640625 C52.12033873 122.00514954 24.93023498 134.79276372 -1.6875 142.125 C-2.5336084 142.35848145 -3.3797168 142.59196289 -4.25146484 142.83251953 C-50.39305873 155.28287648 -104.3855926 152.18003278 -146.5625 128.6171875 C-155.38403955 123.44922179 -166.55920745 116.14739021 -171.6875 107.125 C-171.3575 106.135 -171.0275 105.145 -170.6875 104.125 C-166.42512357 104.23155941 -164.25031079 105.28225476 -161.25 108.125 C-144.36084476 123.73467378 -121.56309436 129.56323053 -99.6875 134.125 C-98.46184326 134.39618652 -98.46184326 134.39618652 -97.21142578 134.67285156 C-66.56633342 141.30416215 -30.33843636 138.70209388 -0.6875 129.125 C0.06515137 128.88942383 0.81780273 128.65384766 1.59326172 128.41113281 C18.85570662 122.96127399 34.30731542 115.72177856 48.3125 104.125 C49.18390625 103.41730469 50.0553125 102.70960938 50.953125 101.98046875 C65.72752646 89.40409941 73.55428373 73.10953754 79.00317383 54.89135742 C79.63092314 52.79269807 80.27581341 50.69990349 80.92382812 48.60742188 C83.00434304 41.83413335 84.91576623 35.07780181 86.3125 28.125 C85.61241821 28.63716064 85.61241821 28.63716064 84.89819336 29.15966797 C40.6722571 61.45677371 40.6722571 61.45677371 25.3125 59.125 C21.82309141 57.14928956 19.11444466 54.72888931 17.3125 51.125 C16.384375 51.99125 16.384375 51.99125 15.4375 52.875 C7.36254226 58.68896957 -1.45553072 60.31143822 -11.1875 60.4375 C-12.30705078 60.48100586 -12.30705078 60.48100586 -13.44921875 60.52539062 C-17.39649024 60.57080171 -19.23201317 60.42001067 -22.63671875 58.21484375 C-25.99750589 54.79004162 -26.78743576 52.62049624 -26.8125 47.875 C-26.77125 46.6375 -26.73 45.4 -26.6875 44.125 C-27.72583984 44.81722656 -27.72583984 44.81722656 -28.78515625 45.5234375 C-30.87139477 46.91426318 -32.95873528 48.3034366 -35.046875 49.69140625 C-37.56817118 51.37111972 -40.07619258 53.06893467 -42.578125 54.77734375 C-43.23031006 55.21965332 -43.88249512 55.66196289 -44.55444336 56.11767578 C-45.82149208 56.97721467 -47.08550137 57.84125666 -48.34594727 58.71044922 C-55.65587093 63.64988182 -62.66457488 66.80724028 -71.6875 65.125 C-74.59092332 63.42040953 -75.05032327 62.28644471 -76.6875 59.125 C-77.66422238 52.50499273 -75.83443698 47.90936988 -72.6875 42.125 C-72.33300781 41.45082031 -71.97851562 40.77664063 -71.61328125 40.08203125 C-60.77627235 21.86081439 -38.80025691 5.10327733 -18.69921875 -1.53125 C-12.7927549 -2.54050984 -5.19229886 -3.46582728 0 0 Z " fill="#F9FAFC" transform="translate(1381.6875,433.875)"/>
<path d="M0 0 C3.939375 0.061875 7.87875 0.12375 11.9375 0.1875 C11.9375 10.7475 11.9375 21.3075 11.9375 32.1875 C-3.3125 31.9375 -3.3125 31.9375 -8.04394531 31.82714844 C-17.86732017 31.7498383 -26.64214533 32.75829603 -35.125 38.125 C-39.28023282 42.54831235 -40.440812 45.96286485 -40.57421875 52.01953125 C-40.62739258 53.95795898 -40.62739258 53.95795898 -40.68164062 55.93554688 C-40.70473681 57.29035934 -40.72751935 58.64517718 -40.75 60 C-40.78319761 61.37438117 -40.81768953 62.74873171 -40.85351562 64.12304688 C-40.93590757 67.47757607 -41.00088234 70.83252491 -41.0625 74.1875 C-35.7825 74.1875 -30.5025 74.1875 -25.0625 74.1875 C-25.0625 81.4475 -25.0625 88.7075 -25.0625 96.1875 C-54.7625 96.1875 -84.4625 96.1875 -115.0625 96.1875 C-115.0625 88.9275 -115.0625 81.6675 -115.0625 74.1875 C-109.7825 74.1875 -104.5025 74.1875 -99.0625 74.1875 C-99.0625 57.3575 -99.0625 40.5275 -99.0625 23.1875 C-104.6725 23.1875 -110.2825 23.1875 -116.0625 23.1875 C-116.0625 16.2575 -116.0625 9.3275 -116.0625 2.1875 C-91.3125 2.1875 -66.5625 2.1875 -41.0625 2.1875 C-40.5675 10.1075 -40.5675 10.1075 -40.0625 18.1875 C-39.134375 17.011875 -38.20625 15.83625 -37.25 14.625 C-27.01010162 2.95772184 -14.95107188 -0.3338216 0 0 Z " fill="#FBFCFD" transform="translate(672.0625,258.8125)"/>
<path d="M0 0 C24.42 0 48.84 0 74 0 C74 23.76 74 47.52 74 72 C79.28 72 84.56 72 90 72 C90 79.26 90 86.52 90 94 C60.63 94 31.26 94 1 94 C1 86.74 1 79.48 1 72 C6.28 72 11.56 72 17 72 C17 55.17 17 38.34 17 21 C11.39 21 5.78 21 0 21 C0 14.07 0 7.14 0 0 Z " fill="#FDFDFD" transform="translate(700,261)"/>
<path d="M0 0 C24.42 0 48.84 0 74 0 C74 23.76 74 47.52 74 72 C79.28 72 84.56 72 90 72 C90 79.26 90 86.52 90 94 C60.63 94 31.26 94 1 94 C1 86.74 1 79.48 1 72 C6.28 72 11.56 72 17 72 C17 55.17 17 38.34 17 21 C11.39 21 5.78 21 0 21 C0 14.07 0 7.14 0 0 Z " fill="#FDFDFD" transform="translate(449,261)"/>
<path d="M0 0 C2.25148429 1.61939706 2.91323961 2.54274927 3.43359375 5.28515625 C3.45180605 18.23410045 -0.20301937 30.65620547 -3.8515625 42.98828125 C-6.45850792 51.92739736 -8.67447154 60.98449938 -11 70 C-10.24074219 69.96519531 -9.48148438 69.93039062 -8.69921875 69.89453125 C-7.20841797 69.85392578 -7.20841797 69.85392578 -5.6875 69.8125 C-4.70136719 69.77769531 -3.71523438 69.74289062 -2.69921875 69.70703125 C0 70 0 70 1.859375 71.296875 C3 73 3 73 2.9375 76.4375 C1.93420026 80.25003903 1.04750225 81.59893762 -2 84 C-4.76452033 85.38226016 -7.0461363 85.09525387 -10.125 85.0625 C-11.22070312 85.05347656 -12.31640625 85.04445313 -13.4453125 85.03515625 C-14.70988281 85.01775391 -14.70988281 85.01775391 -16 85 C-16.10699219 86.07894531 -16.21398437 87.15789062 -16.32421875 88.26953125 C-17.02657369 93.85515956 -18.40873994 99.24314027 -19.8125 104.6875 C-20.06064453 105.70650391 -20.30878906 106.72550781 -20.56445312 107.77539062 C-21.90629691 112.99594824 -22.99894903 117.14503203 -27 121 C-29.91055201 122.455276 -31.78091798 122.45067148 -35 122 C-37.61819594 119.38180406 -38.94239068 117.47279482 -39.08984375 113.703125 C-38.7284048 109.68129526 -38.28198476 107.42297714 -36 104 C-34.35 97.73 -32.7 91.46 -31 85 C-44.53 85.33 -58.06 85.66 -72 86 C-76.4731961 98.62399834 -76.4731961 98.62399834 -76.99609375 110.015625 C-77.00213184 113.08297428 -78.00701919 114.73212528 -80 117 C-82.79837422 119.19332034 -84.5955313 119.94337438 -88.125 120.4375 C-91 120 -91 120 -92.6484375 118.265625 C-95.45648519 113.55849303 -94.7056216 108.07182015 -93.51220703 102.87646484 C-91.91245793 96.84205034 -89.97364503 90.92093509 -88 85 C-89.24716797 85.03480469 -89.24716797 85.03480469 -90.51953125 85.0703125 C-91.60621094 85.08835937 -92.69289063 85.10640625 -93.8125 85.125 C-95.43091797 85.15980469 -95.43091797 85.15980469 -97.08203125 85.1953125 C-100 85 -100 85 -103 83 C-103.625 79.75 -103.625 79.75 -103 76 C-100.46112613 73.02475718 -97.49392766 70.74696383 -94 69 C-91.95501575 69.08780403 -89.91255052 69.24241538 -87.875 69.4375 C-86.77929688 69.53933594 -85.68359375 69.64117187 -84.5546875 69.74609375 C-83.71164062 69.82988281 -82.86859375 69.91367187 -82 70 C-81.87882813 69.12988281 -81.75765625 68.25976562 -81.6328125 67.36328125 C-81.01470721 64.07816609 -80.08131705 61.29915889 -78.875 58.1875 C-75.59802153 49.26154412 -73.1596065 40.11824351 -70.6484375 30.953125 C-70.09952131 28.9685942 -69.55005955 26.9842142 -69 25 C-68.61328125 23.57530396 -68.61328125 23.57530396 -68.21875 22.12182617 C-67.84363281 20.79115112 -67.84363281 20.79115112 -67.4609375 19.43359375 C-67.13681885 18.26268188 -67.13681885 18.26268188 -66.80615234 17.06811523 C-65.33763944 13.30077036 -63.52712606 11.96705107 -60 10 C-56.12806099 9.93437392 -54.02545461 10.16681813 -51 12.625 C-48.67936343 18.13651185 -51.72864854 24.73289057 -53.58203125 30.13671875 C-53.83748215 30.89741165 -54.09293304 31.65810455 -54.35612488 32.44184875 C-55.16925312 34.85902 -55.99067203 37.27327455 -56.8125 39.6875 C-57.35277418 41.28822234 -57.89249239 42.88913245 -58.43164062 44.49023438 C-59.43771293 47.47603611 -60.44729423 50.46060383 -61.46020508 53.4440918 C-63.32348448 58.95711812 -65.15974813 64.4792444 -67 70 C-53.8 70 -40.6 70 -27 70 C-25.68 64.72 -24.36 59.44 -23 54 C-22.17411858 50.83092015 -21.34327062 47.66433077 -20.5 44.5 C-20.07906561 42.89723031 -19.6584991 41.29436396 -19.23828125 39.69140625 C-18.44025194 36.65263582 -17.62354944 33.61986206 -16.79296875 30.58984375 C-15.0118486 23.96625523 -13.68298445 17.89783138 -13.97265625 10.98046875 C-14.03051913 6.78954292 -12.61904297 4.65441685 -9.8125 1.6875 C-6.25026004 -0.44984397 -4.08965199 -0.53014007 0 0 Z " fill="#F9FAFC" transform="translate(999,380)"/>
<path d="M0 0 C0.99 0.66 1.98 1.32 3 2 C6.02001959 2.57342144 9.04103838 2.95071494 12.08984375 3.33984375 C15 4 15 4 16.83984375 5.53125 C20.19909308 7.81529656 23.6503745 7.49247724 27.625 7.5625 C35.74458369 7.74458369 35.74458369 7.74458369 38 10 C38.58903984 14.45987305 38.52313356 16.31702008 35.75 19.9375 C33 22 33 22 29 22 C28.97421875 22.556875 28.9484375 23.11375 28.921875 23.6875 C28.27802793 32.35016968 25.39651582 38.34752763 19.03125 44.28125 C4.68802853 56.41782202 -9.69257562 61.12757947 -28.16796875 61.36328125 C-33.62461777 60.84598425 -37.55377756 59.5603979 -41.375 55.4375 C-44.74143952 50.38784072 -44.64766216 45.97040286 -44 40 C-39.12352708 23.16195449 -28.76081905 11.68151515 -14 3 C-12.948125 2.360625 -11.89625 1.72125 -10.8125 1.0625 C-6.93333029 -0.40296411 -4.14174571 -0.33948735 0 0 Z " fill="#FAFBFC" transform="translate(1047,440)"/>
<path d="M0 0 C1.9375 1.625 1.9375 1.625 3.9375 3.625 C3.85765309 7.85688633 3.30775063 10.11318296 0.8125 13.5625 C-2.82298566 16.1705658 -4.66464336 16.08793228 -9.0625 15.625 C-9.990625 15.42132813 -10.91875 15.21765625 -11.875 15.0078125 C-22.4158813 13.74187332 -33.29535565 20.44044288 -42.0625 25.625 C-41.80401198 27.55987362 -41.80401198 27.55987362 -41.0625 29.625 C-38.64151848 31.25748332 -36.30568725 32.67826902 -33.75 34.0625 C-28.19259195 37.09237137 -24.00102745 39.74794509 -21.0625 45.625 C-19.99389322 57.67748307 -22.45603781 66.20741889 -30.1640625 75.4765625 C-30.79054688 76.18554688 -31.41703125 76.89453125 -32.0625 77.625 C-32.64773438 78.29273438 -33.23296875 78.96046875 -33.8359375 79.6484375 C-42.47075186 88.86619291 -56.45365556 99.71850524 -69.375 100.9375 C-73.83617228 100.55943455 -75.78680247 99.66671913 -79.0625 96.625 C-80.1875 93.25 -80.1875 93.25 -80.0625 89.625 C-77.12579114 84.15664557 -77.12579114 84.15664557 -74.0625 82.625 C-67.63643306 82.38699752 -67.63643306 82.38699752 -65.25390625 83.375 C-61.67894152 83.78283911 -59.2268901 81.6686629 -56.375 79.75 C-55.44723755 79.13632568 -55.44723755 79.13632568 -54.50073242 78.51025391 C-47.06082343 73.44960515 -39.4057065 67.66308223 -37.0625 58.625 C-36.94282565 55.11666388 -36.94282565 55.11666388 -38.0625 51.625 C-40.37039678 49.83064846 -42.17526915 48.67893496 -44.75 47.4375 C-45.9841709 46.80029925 -47.21725484 46.1609886 -48.44921875 45.51953125 C-49.0534668 45.20983398 -49.65771484 44.90013672 -50.28027344 44.58105469 C-55.60140221 41.72659711 -59.24504177 39.04318891 -62.0625 33.625 C-62.98554018 29.47131921 -61.92857805 26.88609806 -59.875 23.3125 C-49.572126 8.98957937 -17.0833761 -7.67008723 0 0 Z " fill="#F9FAFC" transform="translate(1563.0625,421.375)"/>
<path d="M0 0 C1.18299683 0.01353516 1.18299683 0.01353516 2.38989258 0.02734375 C9.68025101 0.24346554 15.67598461 1.27967728 21.20703125 6.34375 C27.93334067 13.68652362 28.67434953 19.56395254 28.42578125 29.28515625 C28.16665861 34.08052463 27.47755064 37.83462558 24.125 41.4375 C16.99924632 47.42745992 10.12050988 49.82035064 0.8125 49.75 C0.0599292 49.74581055 -0.6926416 49.74162109 -1.46801758 49.73730469 C-7.04544202 49.62395956 -11.83386126 48.96358484 -16.875 46.4375 C-17.9475 45.921875 -19.02 45.40625 -20.125 44.875 C-25.21627293 40.36228081 -27.50589227 35.48344117 -28.32421875 28.73046875 C-28.56729244 20.32347196 -28.05650457 14.05303416 -22.33203125 7.734375 C-15.89188856 1.66266152 -8.68487249 -0.11911108 0 0 Z " fill="#215DA9" transform="translate(1485.875,282.5625)"/>
<path d="M0 0 C18.48 0 36.96 0 56 0 C56 10.23 56 20.46 56 31 C37.52 31 19.04 31 0 31 C0 20.77 0 10.54 0 0 Z " fill="#F9FBFC" transform="translate(718,221)"/>
<path d="M0 0 C18.48 0 36.96 0 56 0 C56 10.23 56 20.46 56 31 C37.52 31 19.04 31 0 31 C0 20.77 0 10.54 0 0 Z " fill="#FAFBFC" transform="translate(467,221)"/>
<path d="M0 0 C2.51994129 2.3506915 4.45136316 4.90272632 6 8 C6.039992 9.99960012 6.04346799 12.00047242 6 14 C4.06440687 14.13504138 2.126128 14.23201129 0.1875 14.3125 C-0.89144531 14.37050781 -1.97039063 14.42851562 -3.08203125 14.48828125 C-4.04496094 14.32714844 -5.00789063 14.16601562 -6 14 C-7.703125 11.5390625 -7.703125 11.5390625 -9 9 C-12.30703161 7.94456438 -14.12721302 7.65547882 -17.375 8.9375 C-17.91125 9.288125 -18.4475 9.63875 -19 10 C-18.35558799 13.08922937 -18.35558799 13.08922937 -16.12988281 13.97973633 C-15.32905273 14.26099365 -14.52822266 14.54225098 -13.703125 14.83203125 C-12.38828125 15.31833008 -12.38828125 15.31833008 -11.046875 15.81445312 C-9.19985313 16.47355101 -7.3509154 17.12730732 -5.5 17.77539062 C0.30097158 19.93379306 3.61481764 21.7433347 7 27 C8.61888243 31.1639524 8.14367894 34.52107019 6.875 38.75 C4.24383766 43.31068138 1.78741439 45.27044311 -3.0625 47.25 C-10.22577034 48.98607644 -18.51904543 49.08830456 -25.3125 46.03125 C-28.4540472 44.1114156 -30.08812256 42.12852671 -32 39 C-32.67050097 35.93771197 -32.85665815 33.1535206 -33 30 C-29.04 30 -25.08 30 -21 30 C-20.54625 30.969375 -20.0925 31.93875 -19.625 32.9375 C-18.34213779 36.07079582 -18.34213779 36.07079582 -16 37 C-14.08499697 37.15898854 -14.08499697 37.15898854 -12 37.125 C-11.29875 37.12757812 -10.5975 37.13015625 -9.875 37.1328125 C-7.90846225 37.11377236 -7.90846225 37.11377236 -6 36 C-6 34.68 -6 33.36 -6 32 C-6.54938232 31.80889648 -7.09876465 31.61779297 -7.66479492 31.42089844 C-10.17608112 30.54082302 -12.68170341 29.64558011 -15.1875 28.75 C-16.05181641 28.44964844 -16.91613281 28.14929688 -17.80664062 27.83984375 C-23.25279434 25.87839375 -27.95831403 24.06561308 -31.29296875 19.05859375 C-32.95344783 14.22393918 -32.69309539 8.87543459 -30.9375 4.125 C-23.33884237 -4.2090116 -9.62706041 -5.79762971 0 0 Z " fill="#000000" transform="translate(43,3)"/>
<path d="M0 0 C5.07402343 2.88522901 7.73109399 6.64498265 9.6484375 12.17578125 C11.41916691 20.8369577 11.46624084 30.9681418 7.1875 38.8125 C4.24425717 43.04975476 1.43240236 46.73967906 -3.8125 47.8125 C-9.82636261 48.35829593 -14.68029486 48.35616545 -19.8125 44.8125 C-22.1875 42.4375 -22.1875 42.4375 -23.8125 39.8125 C-23.8125 38.1625 -23.8125 36.5125 -23.8125 34.8125 C-20.1825 34.8125 -16.5525 34.8125 -12.8125 34.8125 C-12.4825 35.8025 -12.1525 36.7925 -11.8125 37.8125 C-9.43875139 38.14675735 -9.43875139 38.14675735 -6.8125 37.8125 C-4.91048258 36.08211928 -4.91048258 36.08211928 -3.8125 33.8125 C-3.8125 32.8225 -3.8125 31.8325 -3.8125 30.8125 C-5.2975 31.3075 -5.2975 31.3075 -6.8125 31.8125 C-12.5810974 32.37804876 -17.19169159 31.31828725 -21.8125 27.8125 C-26.01588415 22.28173138 -25.52642544 16.46759809 -24.8125 9.8125 C-23.58616332 5.3467834 -21.09580016 2.67346716 -17.125 0.375 C-11.21283915 -2.174482 -6.06316417 -1.88852654 0 0 Z M-12.8125 10.875 C-14.15195753 14.8096565 -13.27900795 16.99957932 -11.8125 20.8125 C-10.70083136 22.14437793 -10.70083136 22.14437793 -7.875 22 C-4.70357141 22.14528733 -4.70357141 22.14528733 -2.8125 19.8125 C-2.494116 17.6726368 -2.494116 17.6726368 -2.5625 15.3125 C-2.55734375 14.5184375 -2.5521875 13.724375 -2.546875 12.90625 C-2.62310091 10.59357249 -2.62310091 10.59357249 -4.8125 8.8125 C-8.57720041 8.25179994 -10.10317536 8.08100897 -12.8125 10.875 Z " fill="#000000" transform="translate(274.8125,3.1875)"/>
<path d="M0 0 C4.21987181 3.50159576 7.23841134 7.84479069 7.9375 13.4375 C7.9375 15.7475 7.9375 18.0575 7.9375 20.4375 C0.0175 20.4375 -7.9025 20.4375 -16.0625 20.4375 C-15.0725 22.0875 -14.0825 23.7375 -13.0625 25.4375 C-10.01996492 26.02095476 -10.01996492 26.02095476 -7.0625 25.4375 C-6.4025 24.7775 -5.7425 24.1175 -5.0625 23.4375 C-2.2421875 23.2421875 -2.2421875 23.2421875 1.0625 23.3125 C2.15820312 23.33054687 3.25390625 23.34859375 4.3828125 23.3671875 C5.22585937 23.39039062 6.06890625 23.41359375 6.9375 23.4375 C6.26685024 28.03067102 5.01291713 30.04633111 1.67578125 33.14453125 C-2.95635067 36.59000466 -8.49093783 36.92623352 -14.0625 36.4375 C-20.25869483 35.02765835 -23.47893153 32.64996323 -27.0625 27.4375 C-29.08602077 21.36693768 -29.09195079 13.25142912 -27.4140625 7.03515625 C-25.6120863 3.51591214 -22.8502925 0.86078308 -19.31640625 -0.90234375 C-13.22957595 -2.68514153 -5.76865984 -2.87810027 0 0 Z M-16.0625 10.4375 C-16.0625 11.4275 -16.0625 12.4175 -16.0625 13.4375 C-14.43786158 13.49145478 -12.81271459 13.53027195 -11.1875 13.5625 C-10.28257812 13.58570313 -9.37765625 13.60890625 -8.4453125 13.6328125 C-5.87443006 13.68074836 -5.87443006 13.68074836 -4.0625 11.4375 C-5.68589805 9.72865995 -7.35569053 8.06303283 -9.0625 6.4375 C-12.27104944 6.4375 -13.78083141 8.33596314 -16.0625 10.4375 Z " fill="#000000" transform="translate(181.0625,14.5625)"/>
<path d="M0 0 C1.29550781 -0.02126953 1.29550781 -0.02126953 2.6171875 -0.04296875 C5.46022352 0.21830715 6.84729367 0.44824726 9.125 2.1875 C13.32660826 8.76844597 12.46140669 16.06130398 12.3125 23.625 C12.29219727 25.58083008 12.29219727 25.58083008 12.27148438 27.57617188 C12.23627608 30.78012654 12.18247381 33.98386739 12.125 37.1875 C7.835 37.1875 3.545 37.1875 -0.875 37.1875 C-1.37 24.3175 -1.37 24.3175 -1.875 11.1875 C-3.855 11.1875 -5.835 11.1875 -7.875 11.1875 C-9.16105661 13.75961322 -9.08543941 15.75656966 -9.19140625 18.6328125 C-9.23330078 19.70917969 -9.27519531 20.78554688 -9.31835938 21.89453125 C-9.37733398 23.58642578 -9.37733398 23.58642578 -9.4375 25.3125 C-9.48068359 26.44816406 -9.52386719 27.58382812 -9.56835938 28.75390625 C-9.67465945 31.56495261 -9.77535397 34.3762099 -9.875 37.1875 C-13.835 37.1875 -17.795 37.1875 -21.875 37.1875 C-21.875 25.3075 -21.875 13.4275 -21.875 1.1875 C-16.875 1.1875 -11.875 1.1875 -6.875 1.1875 C-4.42528376 -0.03735812 -2.73265539 0.02027192 0 0 Z " fill="#000000" transform="translate(97.875,12.8125)"/>
<path d="M0 0 C11.88 0 23.76 0 36 0 C36 12.30703625 36 12.30703625 32.8125 15.5625 C24.80253302 24.67282608 21.96124529 35.23252826 20 47 C15.38 47 10.76 47 6 47 C6.56206872 34.25977579 11.85558458 21.14441542 21 12 C14.07 11.67 7.14 11.34 0 11 C0 7.37 0 3.74 0 0 Z " fill="#000000" transform="translate(288,3)"/>
<path d="M0 0 C11.55 0 23.1 0 35 0 C35 12.30277186 35 12.30277186 31.8125 16 C24.60210107 25.18085208 21.21188696 35.48707385 20 47 C15.38 47 10.76 47 6 47 C6 32.90412948 12.17376651 22.59148019 21 12 C14.07 11.67 7.14 11.34 0 11 C0 7.37 0 3.74 0 0 Z " fill="#000000" transform="translate(327,3)"/>
<path d="M0 0 C4.01886562 1.40769703 6.93471274 4.30422279 9 8 C9.495 10.97 9.495 10.97 10 14 C5.71 14 1.42 14 -3 14 C-3.33 12.68 -3.66 11.36 -4 10 C-6.94727535 10.10169161 -6.94727535 10.10169161 -10 11 C-12.70063098 14.75739962 -11.9838033 18.64172116 -11.484375 23.01171875 C-11.12959633 25.21683512 -11.12959633 25.21683512 -9 27 C-6.39719432 26.67958603 -6.39719432 26.67958603 -4 26 C-3.67 25.01 -3.34 24.02 -3 23 C1.29 23 5.58 23 10 23 C8.83984169 27.9306728 7.78353463 31.41559877 4 35 C-1.47890021 37.97221384 -6.88932725 38.94498224 -13.0390625 37.53125 C-18.33188162 35.86609342 -20.87148812 33.55056274 -24 29 C-25.14330513 25.57008462 -25.20381651 22.8013584 -25.25 19.1875 C-25.28867188 17.38345703 -25.28867188 17.38345703 -25.328125 15.54296875 C-24.90679725 10.99363223 -23.60050615 7.71453712 -20.46484375 4.35546875 C-13.75175154 -0.77807235 -8.37985789 -0.69593814 0 0 Z " fill="#000000" transform="translate(140,13)"/>
<path d="M0 0 C4.82867702 4.82867702 6.56264268 9.48881057 6.8125 16.3125 C6.59304727 21.75767097 5.77001734 26.01215294 2.3125 30.3125 C-4.02952321 36.1440988 -9.04311574 37.69574877 -17.61328125 37.58203125 C-23.08020435 37.10272033 -26.7531983 35.41610601 -30.47265625 31.37109375 C-35.76606581 24.57600772 -36.43487123 18.83686466 -35.6875 10.3125 C-34.12264651 4.30226651 -30.63080179 0.98474952 -25.6875 -2.55859375 C-17.19936942 -7.34974558 -7.72050891 -4.84776141 0 0 Z M-24.6875 2.3125 C-24.6875 2.6425 -24.6875 2.9725 -24.6875 3.3125 C-23.57890625 3.33828125 -22.4703125 3.3640625 -21.328125 3.390625 C-19.86454453 3.44691656 -18.40100438 3.50426367 -16.9375 3.5625 C-16.20789062 3.57667969 -15.47828125 3.59085938 -14.7265625 3.60546875 C-11.21562678 3.76505674 -9.04686672 4.05190332 -6.171875 6.13671875 C-4.6875 8.3125 -4.6875 8.3125 -4.6875 11.875 C-5.79267726 15.67404683 -6.53371548 16.22057438 -9.6875 18.3125 C-8.73117001 19.60565061 -7.77236149 20.89696853 -6.8125 22.1875 C-6.27882813 22.90679687 -5.74515625 23.62609375 -5.1953125 24.3671875 C-3.68876838 26.39502632 -3.68876838 26.39502632 -1.6875 28.3125 C1.62289365 22.7557678 3.04532433 18.80322981 2.3125 12.3125 C0.46330845 6.87370134 -3.06336838 3.53888275 -7.6875 0.3125 C-14.10977693 -1.82825898 -18.95603372 -1.12637977 -24.6875 2.3125 Z M-25.6875 3.3125 C-30.25970684 8.4562327 -32.09264548 11.90281368 -32.046875 18.8828125 C-31.44538331 22.94941936 -29.41977966 26.27387384 -26.6875 29.3125 C-26.0275 29.3125 -25.3675 29.3125 -24.6875 29.3125 C-24.6875 20.7325 -24.6875 12.1525 -24.6875 3.3125 C-25.0175 3.3125 -25.3475 3.3125 -25.6875 3.3125 Z M-20.6875 7.3125 C-20.6875 9.6225 -20.6875 11.9325 -20.6875 14.3125 C-19.06259046 14.33948189 -17.43755367 14.35888757 -15.8125 14.375 C-14.45511719 14.39240234 -14.45511719 14.39240234 -13.0703125 14.41015625 C-10.6706415 14.47499257 -10.6706415 14.47499257 -8.6875 13.3125 C-8.6875 11.6625 -8.6875 10.0125 -8.6875 8.3125 C-11.21225462 7.05012269 -12.99950466 7.21393596 -15.8125 7.25 C-16.72257812 7.25902344 -17.63265625 7.26804687 -18.5703125 7.27734375 C-19.61832031 7.29474609 -19.61832031 7.29474609 -20.6875 7.3125 Z M-20.6875 18.3125 C-20.6875 21.9425 -20.6875 25.5725 -20.6875 29.3125 C-22.0075 29.6425 -23.3275 29.9725 -24.6875 30.3125 C-20.60910328 33.57521737 -17.09426776 33.75215943 -12.0703125 33.6171875 C-9.05307823 33.23137722 -7.05274635 32.20469708 -4.6875 30.3125 C-5.6775 29.9825 -6.6675 29.6525 -7.6875 29.3125 C-8.35416667 27.64583333 -9.02083333 25.97916667 -9.6875 24.3125 C-11.17996902 21.88581374 -12.595675 20.35678352 -14.6875 18.3125 C-17.89910696 17.80984308 -17.89910696 17.80984308 -20.6875 18.3125 Z " fill="#000000" transform="translate(1719.6875,63.6875)"/>
<path d="M0 0 C1.29228516 0.00322266 2.58457031 0.00644531 3.91601562 0.00976562 C5.27083401 0.0181196 6.62565172 0.02658453 7.98046875 0.03515625 C9.3548161 0.04017625 10.7291652 0.04473828 12.10351562 0.04882812 C15.45837799 0.06059957 18.81315096 0.07704342 22.16796875 0.09765625 C20.81967061 7.52577102 19.104899 12.14648045 13.16796875 17.09765625 C4.54325054 22.12148201 -3.96398774 22.89747577 -13.83203125 22.09765625 C-18.7516015 20.73448315 -21.97057123 19.38984628 -24.83203125 15.09765625 C-25.33203125 12.22265625 -25.33203125 12.22265625 -24.83203125 9.09765625 C-18.00053418 1.93291542 -9.62913547 -0.0424191 0 0 Z " fill="#245FAB" transform="translate(1083.83203125,313.90234375)"/>
<path d="M0 0 C1.02104551 0.97850195 2.0206121 1.97980427 3 3 C6.64894317 4.82447159 11.18787258 4.37255487 15.234375 4.51757812 C20.78604386 4.78604386 20.78604386 4.78604386 23 7 C23.68328137 10.18864639 23.51696875 12.16553597 21.78515625 14.9609375 C15.14132595 23.12112437 5.49560176 28.78896903 -5 30 C-9.10501073 30.30036664 -12.7161661 30.45851211 -16.625 29.0625 C-18.60139433 26.09790851 -18.29840085 23.98470515 -17.7265625 20.53125 C-15.7626588 13.68926292 -8.15391344 0 0 0 Z " fill="#235FAA" transform="translate(1037,457)"/>
<path d="M0 0 C3.3 0 6.6 0 10 0 C10 15.51 10 31.02 10 47 C6.04 47 2.08 47 -2 47 C-2 37.1 -2 27.2 -2 17 C-5.63 17 -9.26 17 -13 17 C-13 14.36 -13 11.72 -13 9 C-12.38511719 8.90203125 -11.77023438 8.8040625 -11.13671875 8.703125 C-6.09506893 7.87403825 -6.09506893 7.87403825 -2 5.0625 C-0.89087006 2.8881755 -0.89087006 2.8881755 0 0 Z " fill="#000000" transform="translate(228,3)"/>
<path d="M0 0 C0.64893405 18.33238692 -9.32669243 36.856212 -21.2890625 50.23046875 C-24.06303361 53.06439601 -26.91005722 55.52170278 -30 58 C-31.74875531 40.86219799 -18.96118723 20.10263949 -9 7 C-2.93015332 0 -2.93015332 0 0 0 Z " fill="#2560AB" transform="translate(1140,404)"/>
<path d="M0 0 C4.29 0 8.58 0 13 0 C13 11.88 13 23.76 13 36 C8.71 36 4.42 36 0 36 C0 24.12 0 12.24 0 0 Z " fill="#000000" transform="translate(56,14)"/>
<path d="M0 0 C3 1.5 3 1.5 5 4 C5.80809943 8.92940654 5.54217413 11.72142419 2.75 15.875 C0.22638797 19.22423819 -2.27463531 20.73732429 -6.4375 21.37109375 C-13.32122687 21.54948301 -13.32122687 21.54948301 -16.625 18.875 C-18.25163078 15.47386292 -18.60815629 13.72495727 -18 10 C-13.91275399 2.13991152 -8.64650897 -1.09796939 0 0 Z " fill="#F7F8FB" transform="translate(1207,404)"/>
<path d="M0 0 C4.29 0 8.58 0 13 0 C13 3.3 13 6.6 13 10 C8.71 10 4.42 10 0 10 C0 6.7 0 3.4 0 0 Z " fill="#000000" transform="translate(56,2)"/>
<path d="M0 0 C0.12375 0.639375 0.2475 1.27875 0.375 1.9375 C0.58125 2.618125 0.7875 3.29875 1 4 C1.66 4.33 2.32 4.66 3 5 C1.68 6.32 0.36 7.64 -1 9 C-1.09765625 2.84765625 -1.09765625 2.84765625 -1 1 C-0.67 0.67 -0.34 0.34 0 0 Z " fill="#2CBCDC" transform="translate(24,236)"/>
<path d="M0 0 C2.15377564 2.62198774 3.40072174 4.64404172 4 8 C3.01 8.33 2.02 8.66 1 9 C0.67 6.03 0.34 3.06 0 0 Z " fill="#BEA34F" transform="translate(171,381)"/>
</svg>
